<svg preserveAspectRatio="none" width="100%" height="100%" overflow="visible" style="display: block;" viewBox="0 0 144.957 163.763" fill="none" xmlns="http://www.w3.org/2000/svg">
<g id="Group 229">
<path id="Vector" d="M56.0488 36.2317L57.1264 41.7729L53.6375 40.0798L52.3035 36.7962L51.9956 33.1021L56.0488 36.2317Z" fill="var(--fill-0, #BA2025)"/>
<path id="Vector_2" d="M55.4333 27.4069L58.1525 31.3575L60.6154 30.8958L61.4363 29.4592L63.6425 23.6616L64.7713 20.9936L69.6968 23.6616L73.5448 24.9442L78.4702 25.919L83.0879 25.6111L87.2952 24.2259L90.3219 22.8407L91.2452 20.9936V18.8387L90.3219 15.1959L88.7319 12.3228L86.4741 8.78257L84.1141 5.75546L80.6764 2.62579L77.4441 0.881348H72.416L68.568 1.90746L63.9504 3.85713L60.6154 5.75546L57.4858 6.88424H54.7664L52.3035 7.70513L50.354 9.60346L48.9175 12.3228L47.6348 16.3247L47.8914 19.7109L50.354 24.2259L51.0722 27.099L52.9705 25.6111L55.4333 27.4069Z" fill="var(--fill-0, #BA2025)"/>
<path id="Vector_3" d="M56.4855 57.284L53.4875 54.9219L52.5479 62.2508V72.2864V82.3222L54.4796 98.5302L56.6941 111.817L58.3903 121.24L61.8297 133.678H75.352L76.8126 123.125L77.802 111.487L78.5087 100.132L78.98 86.3741L79.3843 55.8379L76.0197 58.1415L71.5034 60.1913C70.3213 60.4174 67.8783 60.8695 67.563 60.8695H64.047L61.3916 60.1913L56.4855 57.284Z" fill="var(--fill-0, #F1593C)"/>
<path id="Vector_4" d="M44.0613 56.784C47.7044 54.1343 52.3414 52.23 54.2045 51.6089L53.0054 58.86L52.5937 64.2327V73.9817L52.8321 83.8389L53.5037 92.5263L54.3703 99.2638L56.0601 107.908L56.8833 113.194L58.2915 120.387L60.3063 128.316L61.7963 133.676H51.3568L66.2991 144.068L63.6672 147.176L61.7963 150.696L60.6231 154.564L60.1157 159.004L59.8621 162.714L55.2324 161.286L48.9222 158.718L42.1046 154.945L33.8602 149.237L27.1694 143.815L21.4934 138.138L16.8637 132.273L14.8979 129.387L15.9126 114.166L18.3543 91.3984L19.4324 84.1052L21.4934 76.2412L23.3643 71.2629L25.3301 69.3602L29.9277 66.0942L34.4357 62.994C36.1263 62.028 40.4181 59.4336 44.0613 56.784Z" fill="var(--fill-0, white)"/>
<path id="Vector_5" d="M79.1113 74.6532L79.5228 52.0356L87.3007 55.5453L91.8285 58.405L99.5407 63.4528L106.105 68.1106L110.59 87.7602L115.161 107.952L118.974 124.482L119.537 126.95L119.342 129.529L117.869 134.122L114.62 143.199L112.344 148.312L109.03 153.403L106.95 155.093L104.566 155.418L102.531 154.529L106.95 151.194V150.132L106.322 146.883L105.282 144.39L103.657 142.246L101.945 140.708L99.2163 139.386L96.5507 142.246L93.1063 141.466L93.7352 140.209L95.7274 133.676H75.1899L76.3165 126.713L76.8365 123.355L77.6381 112.999L78.0714 107.908L78.5913 97.7904L78.9163 89.5583L79.1113 74.6532Z" fill="var(--fill-0, white)"/>
<path id="Vector_6" fill-rule="evenodd" clip-rule="evenodd" d="M74.9024 0.00851846C76.2607 -0.034926 77.6908 0.0786286 78.8201 0.562629C80.879 1.44507 82.9157 2.94496 85.8804 6.29785C88.886 9.69641 91.1671 14.2989 91.7893 17.0514C92.0827 18.3475 92.2882 19.5871 92.0782 20.7476C91.856 21.9709 91.196 23.0014 89.996 23.934C88.8338 24.8363 87.4382 25.5746 85.7671 26.0849C85.6571 27.8182 85.3916 31.1814 85.0393 33.2827C84.5616 36.1265 83.5279 39.4586 82.8655 41.3391C82.1692 43.3154 80.7716 45.5842 79.5371 46.8873C78.932 47.526 78.226 48.0934 77.4029 48.5362C77.2536 49.8817 77.5916 50.755 78.0037 51.3096C78.1897 51.56 78.399 51.7564 78.604 51.9063C78.6483 51.6642 78.7877 51.448 78.9933 51.3076C79.2273 51.1481 79.5213 51.1042 79.7917 51.1885C80.2934 51.345 81.2241 51.7754 82.3229 52.3191C83.4503 52.877 84.8293 53.5925 86.2705 54.3597C89.1505 55.8933 92.3004 57.6465 94.2071 58.7816C96.136 59.9297 98.9249 61.8826 101.275 63.5696C102.356 64.346 103.352 65.0715 104.137 65.644L104.347 65.7963C104.755 66.0935 105.095 66.3407 105.349 66.5237C105.476 66.6153 105.58 66.6889 105.658 66.7436C105.698 66.7711 105.728 66.7923 105.752 66.8081C105.774 66.8227 105.783 66.8284 105.783 66.8284C106.04 66.9831 106.307 67.17 106.549 67.4352C106.718 67.5529 106.843 67.7241 106.904 67.9205C107.093 68.2459 107.227 68.6204 107.325 69.0559C107.498 69.8187 114.32 99.896 117.709 114.839L117.714 114.858C118 116.256 118.454 118.41 118.88 120.33C119.094 121.292 119.298 122.189 119.473 122.903C119.653 123.644 119.784 124.119 119.848 124.286C120.376 125.659 120.358 127.207 120.287 128.626C120.245 129.445 119.995 130.537 119.723 131.542C119.608 131.963 119.486 132.38 119.366 132.776H144.03C144.543 132.776 144.957 133.19 144.957 133.703C144.957 134.215 144.543 134.629 144.03 134.629H118.772C118.128 136.545 116.072 142.47 114.629 145.727C113.062 149.267 111.434 151.583 110.3 153.032C109.695 153.807 108.879 154.575 108.123 155.162C107.872 155.357 107.619 155.537 107.376 155.695C107.323 155.737 107.265 155.774 107.204 155.803C107.138 155.843 107.075 155.88 107.012 155.916C106.692 156.098 106.298 156.286 105.922 156.333C105.668 156.363 105.364 156.346 105.097 156.322C104.81 156.294 104.49 156.25 104.175 156.199C103.543 156.098 102.889 155.966 102.476 155.874C102.443 155.866 102.41 155.857 102.378 155.846C100.948 156.905 97.0782 159.37 92.4471 160.437C87.606 161.552 83.7816 160.74 81.5841 160.275C81.4102 160.237 81.2465 160.203 81.0931 160.172C79.4238 159.829 77.8038 158.909 76.9874 158.354C76.342 158.857 75.7288 159.314 75.2759 159.628C74.3827 160.249 73.0631 161.024 71.0843 161.562C69.1842 162.078 67.5127 162.326 66.0711 162.184C65.1394 162.092 62.4597 161.685 60.8106 161.426C60.7937 161.92 60.7912 162.383 60.7994 162.818C60.8049 163.109 60.6739 163.385 60.4454 163.565C60.217 163.744 59.9177 163.806 59.6368 163.733C58.0958 163.327 54.7242 162.214 50.8934 160.555C47.0338 158.884 40.4836 155.174 36.7616 152.6C33.0313 150.02 28.2158 145.993 24.1149 141.97C22.0453 139.94 19.8092 137.377 17.9706 135.095C17.7827 134.862 17.5983 134.63 17.4181 134.403C17.3619 134.413 17.3039 134.418 17.2446 134.418H0.926889C0.415 134.418 0 134.004 0 133.492C0 132.979 0.415 132.565 0.926889 132.565H16.0069C15.1208 131.373 14.446 130.377 14.1214 129.767C14.0453 129.625 14.0081 129.464 14.0133 129.302C14.0921 126.9 14.4846 119.133 14.9954 113.553C15.5046 107.992 17.0721 93.1326 18.1338 86.3307C18.6716 82.8846 19.5951 79.4422 20.4201 76.7945C20.8332 75.4687 21.2233 74.3364 21.5312 73.4956C21.8278 72.6857 22.0702 72.0839 22.1849 71.8687C22.5292 71.2231 23.1867 70.0485 24.7674 68.7669C25.525 68.1526 29.4887 65.3467 33.3971 62.6163C37.3074 59.8844 41.2767 57.1484 42.054 56.6779C43.5493 55.7727 48.2076 52.9696 53.7804 50.4796C54.0923 50.3402 54.4558 50.3837 54.7259 50.5929C54.8673 50.7023 54.9712 50.8477 55.03 51.0099C55.0847 50.99 55.1392 50.9696 55.1931 50.9492C55.3947 50.8724 55.5742 50.7974 55.7142 50.7299C55.8451 50.6666 55.8938 50.6336 55.8938 50.6336C56.0453 50.4839 56.6093 49.6206 56.549 47.8707C56.5402 47.6149 56.5364 47.3437 56.5323 47.051C56.5179 46.0289 56.4998 44.742 56.2519 42.91C55.7762 42.6712 54.7714 42.1554 54.2203 41.8282C53.3789 41.3286 52.5217 40.4714 51.8573 39.1427C51.6827 38.7935 51.5431 38.2759 51.4274 37.7597C51.3053 37.2152 51.1892 36.573 51.084 35.9159C50.8731 34.6002 50.6989 33.1826 50.6026 32.2764C50.5822 32.0849 50.6218 31.9006 50.7062 31.7426C50.4953 31.0672 50.2568 30.1942 50.1923 29.2714C50.1609 28.8202 50.17 28.3457 50.2451 27.8656C50.1598 27.7102 50.1181 27.5286 50.1348 27.3387C50.1341 27.3473 50.1374 27.304 50.1287 27.194C50.1204 27.0916 50.1032 26.95 50.0711 26.7699C50.0068 26.41 49.885 25.9091 49.6663 25.2781C49.4014 24.5141 48.8398 23.3686 48.2657 22.198L48.2429 22.1515C47.9594 21.5734 47.6777 20.9971 47.4483 20.4923C47.2267 20.0043 47.0244 19.5201 46.9289 19.1452C46.5776 17.7671 46.7166 16.1655 47.3608 13.8646C48.0449 11.4213 49.7256 9.29796 50.189 8.74185C50.2071 8.72007 50.2277 8.69507 50.2506 8.66718C50.76 8.04696 52.4536 5.98496 55.3214 5.98496C56.531 5.98496 57.232 5.89307 57.6913 5.79507C57.9216 5.74585 58.1033 5.69263 58.2779 5.63852C58.304 5.63041 58.3313 5.62185 58.3594 5.61296C58.5074 5.56652 58.6814 5.51185 58.8579 5.47074C58.9218 5.45585 59.1061 5.38863 59.4439 5.23185C59.759 5.08552 60.1486 4.88963 60.5938 4.65863C61.0646 4.41452 61.5499 4.15641 62.0579 3.88641C62.5548 3.62218 63.0734 3.34641 63.6213 3.06085C65.82 1.91463 68.6408 0.992295 70.9497 0.507517C72.1089 0.264072 73.5219 0.0528518 74.9024 0.00851846ZM51.5839 25.179C51.9218 24.8751 52.3313 24.7033 52.7813 24.68C53.2849 24.654 53.7562 24.8174 54.1524 25.0272C54.9362 25.4421 55.707 26.1895 56.3637 26.9534C57.0358 27.7353 57.6547 28.6135 58.1258 29.3741C58.3617 29.7551 58.5656 30.1147 58.723 30.4257C58.7403 30.46 58.7574 30.4944 58.7743 30.529C59.4973 30.4207 60.102 30.1086 60.519 29.336C60.7868 28.8399 61.3862 27.3289 62.0533 25.5514C62.7072 23.8087 63.3939 21.8985 63.8262 20.6723C63.9119 20.4294 64.0948 20.2331 64.331 20.1304C64.5672 20.0277 64.8354 20.028 65.0714 20.1311C66.0823 20.5725 67.1252 21.1147 68.0993 21.627C68.1862 21.6727 68.2726 21.7182 68.3582 21.7632C69.2462 22.2306 70.0634 22.6609 70.7816 22.9855C72.3557 23.6971 75.8769 25.0124 80.0032 25.0124C84.1471 25.0124 86.9427 23.958 88.8582 22.4697C89.7671 21.7644 90.1282 21.1121 90.2538 20.4169C90.3916 19.659 90.2716 18.7445 89.9816 17.4602C89.4371 15.052 87.3204 10.7241 84.4916 7.52596C81.6232 4.28207 79.8004 2.99974 78.0898 2.26663C77.3343 1.94285 76.229 1.82085 74.9619 1.86152C73.7172 1.90141 72.4153 2.09407 71.3307 2.32174C69.152 2.7793 66.4979 3.65196 64.4782 4.70474C63.9876 4.96063 63.4573 5.24219 62.9426 5.51563C62.4069 5.80019 61.8879 6.07585 61.4474 6.3043C60.9951 6.53896 60.577 6.74974 60.2246 6.91341C59.8948 7.06652 59.5518 7.21252 59.2791 7.27607C59.176 7.30019 59.0797 7.3303 58.9339 7.37585C58.901 7.38619 58.8656 7.39718 58.827 7.40918C58.6286 7.47074 58.3868 7.54219 58.0784 7.60807C57.4608 7.73996 56.6249 7.83885 55.3214 7.83885C53.3487 7.83885 52.1573 9.27341 51.6547 9.87874C51.6403 9.89607 51.6264 9.91274 51.6132 9.92863C51.1792 10.4495 49.7184 12.3202 49.146 14.3644C48.5338 16.5511 48.4932 17.7767 48.7253 18.6873C48.7757 18.8846 48.9128 19.2334 49.1363 19.7256C49.3522 20.2011 49.6217 20.7523 49.9074 21.3353L49.9717 21.4661C50.5126 22.569 51.1149 23.7969 51.4179 24.6709C51.4789 24.8467 51.5341 25.0162 51.5839 25.179ZM52.8256 35.047C52.8543 35.24 52.884 35.4324 52.9144 35.6225C53.0168 36.2609 53.126 36.8616 53.2364 37.3543C53.3532 37.8754 53.4534 38.1896 53.5156 38.3136C54.0343 39.3513 54.656 39.9309 55.1668 40.2341C55.3514 40.3437 55.6019 40.4817 55.8679 40.6239C55.6457 39.5009 55.3471 38.2199 54.945 36.7472C54.2418 36.2625 53.491 35.6791 52.8256 35.047ZM52.9649 52.8936C49.2529 54.6416 46.0873 56.4399 44.2414 57.5293C44.2254 57.782 44.1067 58.027 43.8928 58.1967C43.8928 58.1967 43.8867 58.2017 43.8739 58.2141C43.8657 58.2222 43.8556 58.2325 43.8437 58.2454C43.8376 58.252 43.8309 58.2593 43.8239 58.2673C43.7822 58.3147 43.7293 58.3819 43.6681 58.4715C43.5457 58.651 43.3988 58.9081 43.2482 59.2534C42.9473 59.9432 42.639 60.968 42.476 62.3906C42.417 62.905 42.3556 63.402 42.2948 63.8927C41.9097 67.0025 41.5549 69.867 42.0863 75.3467C42.5447 80.0735 43.5472 86.1503 44.0981 89.199C45.5603 89.3957 46.6697 90.1413 47.4233 91.1256C48.2832 92.2489 48.6661 93.6582 48.6661 94.8893C48.6661 96.2915 47.9154 97.4904 46.9321 98.3182C45.9486 99.146 44.6476 99.6815 43.35 99.7293C40.6916 99.826 38.3622 97.796 38.1263 94.966C37.8889 92.1166 39.6008 90.6679 40.6494 89.9686C41.1562 89.6309 41.7313 89.4245 42.2332 89.303C41.6702 86.1623 40.6952 80.209 40.241 75.5256C39.6896 69.8382 40.0659 66.8016 40.4551 63.6616C40.5157 63.1735 40.5764 62.683 40.6341 62.1795C40.7563 61.1134 40.9551 60.2183 41.1889 59.4793C39.526 60.6119 37.0026 62.3589 34.4588 64.136C30.5098 66.8949 26.6258 69.6469 25.9351 70.2069C24.6194 71.2735 24.1026 72.2126 23.8207 72.7412C23.8207 72.7412 23.8167 72.7491 23.8073 72.7691C23.7976 72.7903 23.7847 72.8189 23.7687 72.8556C23.7368 72.9292 23.6958 73.0274 23.6466 73.1501C23.5482 73.395 23.421 73.7264 23.2721 74.133C22.9744 74.9459 22.594 76.0494 22.1901 77.346C21.3809 79.9431 20.4844 83.2915 19.9654 86.6166C18.9136 93.3571 17.3502 108.166 16.8417 113.722C16.3519 119.07 15.9706 126.47 15.8752 129.105C16.4138 130.025 17.7244 131.834 19.4143 133.932C21.2254 136.18 23.4121 138.685 25.413 140.647C29.4533 144.609 34.188 148.566 37.816 151.075C41.4523 153.589 47.8967 157.237 51.6301 158.854C54.5891 160.135 57.2512 161.076 58.9506 161.604C59.0008 159.67 59.2566 157.316 59.9053 154.267C60.3155 152.339 61.0806 150.24 62.1008 148.358C62.8936 146.895 63.8624 145.523 64.974 144.464C62.3826 142.635 56.4491 138.499 50.8156 134.579C47.55 132.307 44.3883 130.109 42.0431 128.479C40.8706 127.665 39.902 126.992 39.2267 126.523L38.1702 125.789C38.1702 125.789 38.1691 125.788 38.6979 125.027L38.1691 125.788C37.9543 125.639 37.8126 125.406 37.7787 125.147C37.2697 121.245 36.0809 112.3 35.3936 107.707C34.5373 101.986 32.7431 93.366 31.6932 89.2054C30.6293 84.9895 28.8599 78.5333 26.2214 74.538C25.9393 74.1107 26.057 73.5357 26.4841 73.2536C26.9113 72.9715 27.4863 73.0891 27.7684 73.5163C30.6097 77.8186 32.441 84.5917 33.4908 88.7519C34.5543 92.967 36.3611 101.647 37.227 107.433C37.8943 111.892 39.0293 120.414 39.5638 124.499L40.2843 125C40.9597 125.469 41.9283 126.142 43.1011 126.957C45.3892 128.547 48.4543 130.678 51.6351 132.892C51.7681 132.817 51.921 132.776 52.0838 132.776H60.5518C59.7017 129.888 58.3043 124.867 57.5218 121.065C56.7877 117.498 55.9496 112.796 55.0558 107.782C54.5808 105.116 54.09 102.363 53.5908 99.6449C52.1366 91.7271 51.4902 80.3615 51.572 77.1706C51.5942 76.304 51.5916 74.9189 51.5883 73.2646C51.5858 71.9521 51.5829 70.4701 51.5918 68.9433C51.6118 65.537 51.6911 61.9125 51.9803 59.6821C52.3001 57.2144 52.6848 54.6637 52.9649 52.8936ZM61.7746 134.629C61.7889 134.629 61.8031 134.629 61.8176 134.629H94.486L92.6671 140.363L90.3038 139.823C90.2938 139.82 90.2827 139.818 90.2716 139.816L89.2816 139.627C87.3604 138.616 85.1227 137.409 84.0805 136.764C82.1074 135.54 80.2043 136.242 79.4401 136.806L79.4368 136.808C78.7541 137.317 76.6662 138.938 73.6834 141.418C70.0234 144.462 68.2902 145.168 67.3084 145.473C67.0424 145.555 66.7291 145.615 66.4131 145.657C66.6172 145.472 66.824 145.303 67.0331 145.15C67.2736 144.975 67.4153 144.695 67.4142 144.398C67.4132 144.1 67.2694 143.822 67.0278 143.648C65.5491 142.587 59.9302 138.666 54.1326 134.629H61.7746ZM64.7469 147.588C64.3886 148.1 64.0482 148.655 63.7307 149.242C62.794 150.969 62.0913 152.902 61.7187 154.653C61.3119 156.565 61.0679 158.178 60.9338 159.569C62.5726 159.827 65.3507 160.249 66.2528 160.338C67.37 160.448 68.7907 160.264 70.598 159.773C72.3266 159.303 73.4546 158.637 74.2171 158.106C75.0171 157.55 76.3966 156.489 77.4917 155.554C78.7079 154.514 80.0667 153.884 81.1853 153.77C82.2109 153.665 83.7682 153.872 84.6805 154.062C85.6516 154.263 87.2816 154.699 88.4682 155.162C89.0049 155.372 89.3504 155.47 89.6549 155.484C89.9282 155.496 90.2327 155.442 90.6693 155.208C90.9405 155.064 91.1993 154.785 91.4149 154.415C91.6282 154.048 91.7549 153.668 91.8004 153.427C91.8271 153.286 91.866 153.096 91.9138 152.863C92.1304 151.797 92.5382 149.799 92.8882 147.137C93.0149 146.173 92.706 145.097 92.1882 144.164C91.9338 143.706 91.6427 143.308 91.3638 143.004C91.0738 142.687 90.8405 142.52 90.716 142.463C90.7049 142.457 90.6938 142.452 90.6827 142.446C90.126 142.16 89.3704 141.768 88.5416 141.333C86.6082 140.316 84.2349 139.04 83.1031 138.339C81.9461 137.622 80.8761 138.052 80.5427 138.296C79.8925 138.78 77.8326 140.379 74.8689 142.844C71.0922 145.984 69.1463 146.844 67.858 147.244C66.8043 147.57 65.413 147.612 64.8594 147.598C64.8212 147.597 64.7837 147.594 64.7469 147.588ZM93.2582 142.399C94.3882 142.463 96.3527 143.106 96.3527 143.106C96.6593 143.176 96.9804 143.086 97.206 142.866L99.656 140.479C99.8893 140.563 100.11 140.666 100.318 140.795C102.996 142.454 104.235 143.872 104.934 145.874C105.006 146.078 105.075 146.273 105.143 146.459C105.463 147.353 105.728 148.095 105.895 149.129C105.958 149.523 106.007 149.962 106.036 150.465C104.62 151.624 102.22 153.589 101.6 154.105C100.829 154.745 96.8538 157.52 92.0316 158.63C87.5993 159.65 84.1282 158.917 81.9546 158.458C81.7835 158.422 81.6204 158.387 81.4657 158.355C80.3752 158.132 79.2559 157.575 78.5058 157.124C78.57 157.07 78.6336 157.016 78.6962 156.963C79.7116 156.095 80.7284 155.68 81.3734 155.615C82.1116 155.539 83.4454 155.698 84.3038 155.876C85.2049 156.064 86.7304 156.474 87.7949 156.889C88.3582 157.109 88.9438 157.308 89.5727 157.336C90.2327 157.365 90.866 157.205 91.5438 156.843C92.2227 156.48 92.7004 155.892 93.0171 155.348C93.2704 154.913 93.4505 154.456 93.556 154.062C94.5438 148.122 95.8393 145.54 93.2582 142.399ZM107.913 151.02C107.93 150.906 107.927 150.789 107.903 150.676C107.875 149.984 107.814 149.38 107.726 148.835C107.529 147.617 107.199 146.7 106.875 145.798C106.812 145.619 106.747 145.442 106.685 145.263C105.799 142.728 104.195 141.015 101.294 139.218C99.9293 138.374 98.326 138.275 96.9693 138.433C96.3016 138.51 95.6649 138.654 95.1004 138.822L98.6438 127.655C98.6593 127.606 98.6716 127.555 98.6782 127.503L106.297 72.906C108.212 81.3463 113.168 103.199 115.899 115.24C116.188 116.645 116.643 118.804 117.07 120.733C117.285 121.698 117.493 122.61 117.672 123.342C117.843 124.046 118.002 124.65 118.118 124.952C118.489 125.919 118.507 127.106 118.435 128.532C118.405 129.134 118.205 130.057 117.934 131.055C117.667 132.033 117.354 133.008 117.13 133.688C116.68 135.056 114.444 141.567 112.934 144.976C111.443 148.347 109.903 150.532 108.84 151.889C108.57 152.235 108.237 152.592 107.883 152.928C107.917 152.223 107.926 151.592 107.913 151.02ZM106.029 152.867C105.432 153.357 104.798 153.876 104.243 154.332C104.318 154.345 104.393 154.357 104.468 154.369C104.762 154.416 105.038 154.454 105.269 154.475C105.52 154.498 105.655 154.497 105.697 154.492C105.697 154.492 105.697 154.492 105.7 154.49C105.717 154.486 105.788 154.464 105.922 154.397C105.97 153.844 106.006 153.335 106.029 152.867ZM105.033 68.5532C104.977 68.511 104.91 68.4667 104.828 68.4176C104.648 68.3095 104.047 67.8721 103.274 67.3087L103.048 67.1436C102.262 66.5709 101.27 65.8484 100.194 65.0756C97.8371 63.3837 95.1093 61.4762 93.2593 60.3747C92.5427 59.9482 91.6427 59.4303 90.6449 58.868C90.7171 59.1023 90.7882 59.3544 90.856 59.6249C91.2604 61.2304 91.5882 63.5261 91.6516 66.6889C92.7938 67.7223 94.886 70.0456 96.5338 73.2636C98.7771 77.6453 99.8349 81.3751 100.11 82.9122C100.245 83.6711 100.493 85.5287 100.623 87.6884C100.753 89.8391 100.77 92.3606 100.419 94.416C100.343 94.8615 99.9571 95.1871 99.5049 95.1871H98.0171C97.5049 95.1871 97.0905 94.7715 97.0905 94.2604C97.0905 93.7482 97.5049 93.3326 98.0171 93.3326H98.7016C98.9027 91.631 98.8827 89.6237 98.7727 87.7999C98.646 85.7011 98.406 83.9159 98.2849 83.2381C98.046 81.9021 97.0527 78.3463 94.8838 74.1084C93.5449 71.493 91.8971 69.5334 90.8504 68.4864C90.2627 69.2862 89.7216 70.1444 89.2438 71.2673C88.6016 72.7747 88.0538 74.8025 87.7016 77.8459C87.0582 83.4099 87.5893 89.4291 87.9627 93.6526C87.9716 93.7571 87.9804 93.8593 87.9904 93.9615H89.6538C90.166 93.9615 90.5816 94.3771 90.5816 94.8893C90.5816 95.4004 90.166 95.816 89.6538 95.816H87.1404C86.6593 95.816 86.2582 95.4471 86.2171 94.9682C86.1849 94.6015 86.1505 94.2137 86.1149 93.8071C85.7427 89.6039 85.1938 83.3971 85.8604 77.6327C86.226 74.4679 86.8071 72.2563 87.5382 70.541C88.2138 68.9534 89.0027 67.8282 89.7993 66.8047C89.7427 63.7045 89.4238 61.5287 89.0582 60.0777C88.8693 59.3267 88.6704 58.7814 88.4949 58.4075C88.4082 58.2207 88.3304 58.0841 88.2671 57.9894C88.2016 57.8902 88.1649 57.8569 88.1671 57.8591C88.0049 57.7153 87.9049 57.5273 87.8693 57.3292C87.0482 56.8805 86.2138 56.4297 85.3993 55.9961C83.9671 55.2336 82.6056 54.5274 81.5008 53.9807C81.0861 53.7755 80.717 53.5976 80.3993 53.4494C80.3376 56.2386 80.2523 62.8491 80.1727 69.5349C80.1427 72.0513 80.1134 74.5734 80.0866 76.8952C80.0249 82.2259 79.9753 86.5007 79.9564 87.2276C79.9023 89.3003 79.308 104.04 79.0902 106.908C79.0754 107.104 79.0573 107.343 79.0362 107.623C78.7529 111.38 77.9331 122.253 77.3916 125.976C77.0142 128.57 76.5876 131.218 76.3288 132.776H95.0738L96.8527 127.169L105.033 68.5532ZM74.4493 132.776H62.4853C61.6672 130.032 60.1549 124.662 59.3377 120.692C58.6082 117.147 57.7781 112.489 56.8878 107.494C56.4117 104.823 55.9184 102.055 55.4141 99.3093C53.9828 91.5169 53.3468 80.2794 53.4253 77.2182C53.448 76.3342 53.4453 74.9001 53.4422 73.2125C53.4398 71.8999 53.437 70.4339 53.4457 68.9541C53.4658 65.5273 53.5469 62.0182 53.8188 59.9204C53.9499 58.9089 54.0921 57.8826 54.2334 56.9027C55.2366 57.7812 56.6038 58.7876 58.2226 59.6661C60.5096 60.9072 63.3564 61.9241 66.4311 61.9144C71.4518 61.8987 75.9703 59.4759 78.4728 57.639C78.4238 60.915 78.37 65.2193 78.3189 69.5127C78.2887 72.0503 78.2592 74.5893 78.2322 76.9216C78.1708 82.2294 78.1218 86.4665 78.1031 87.1793C78.0492 89.246 77.4558 103.948 77.2417 106.768C77.2268 106.963 77.2089 107.202 77.1881 107.476C76.9032 111.252 76.0881 122.058 75.5569 125.709C75.1559 128.466 74.6982 131.288 74.4493 132.776ZM78.5113 55.2245C78.5195 54.762 78.5272 54.3395 78.5349 53.9627C77.8796 53.7161 77.1144 53.2212 76.5157 52.4153C75.9323 51.6303 75.5327 50.5853 75.5139 49.2602C75.1037 49.3609 74.6714 49.434 74.2162 49.4759C71.9774 49.6814 69.7871 49.1925 68.4839 48.7076C67.2578 48.2513 65.2642 47.4576 63.5336 45.7731C62.7171 44.9784 61.878 44.0639 61.185 43.1276C60.5024 42.2057 59.9121 41.1974 59.6679 40.2206C59.5438 39.7241 59.8458 39.2207 60.3423 39.0966C60.839 38.9724 61.3423 39.2744 61.4664 39.7711C61.6237 40.4001 62.0476 41.1771 62.675 42.0246C63.2919 42.858 64.0584 43.697 64.8267 44.4446C66.2652 45.8447 67.948 46.5301 69.1304 46.9701C70.2359 47.3814 72.1443 47.8044 74.0467 47.6296C75.8644 47.4627 77.1842 46.6752 78.1912 45.6123C79.2386 44.5067 80.5031 42.4654 81.1168 40.7232C81.7643 38.8851 82.7589 35.6674 83.2109 32.9757C83.5131 31.1762 83.7538 28.3423 83.8782 26.5391C82.7049 26.752 81.4167 26.8663 80.0032 26.8663C75.5132 26.8663 71.7197 25.4441 70.0179 24.6749C69.2458 24.3257 68.3778 23.8687 67.5033 23.4083C67.4144 23.3615 67.3255 23.3146 67.2365 23.2679C66.5677 22.9162 65.8943 22.5653 65.2344 22.2472C64.8209 23.4053 64.2956 24.8527 63.789 26.2027C63.1427 27.9252 62.493 29.5817 62.1506 30.2164C61.1563 32.0586 59.4801 32.4054 58.1892 32.4307C57.7556 32.4392 57.3741 32.146 57.2708 31.7247C57.2708 31.7247 57.2699 31.7213 57.2677 31.7139C57.2654 31.7065 57.2622 31.6965 57.2577 31.6836C57.2486 31.6575 57.2356 31.6236 57.218 31.5814C57.1826 31.4965 57.1331 31.3899 57.0689 31.263C56.9404 31.0093 56.7641 30.6966 56.5496 30.3502C56.1196 29.6557 55.5563 28.8582 54.9578 28.162C54.344 27.4477 53.7559 26.9149 53.2851 26.6656C53.0542 26.5434 52.9244 26.529 52.8771 26.5314H52.874C52.863 26.5312 52.8431 26.5309 52.7919 26.5901C52.1478 27.3359 51.9771 28.2153 52.0418 29.1424C52.105 30.0493 52.3863 30.9179 52.6234 31.65C52.6352 31.6862 52.6468 31.722 52.6582 31.7575C52.8234 32.269 53.2876 32.9087 53.9903 33.595C54.6733 34.262 55.4996 34.8939 56.2602 35.3987C56.446 35.522 56.581 35.708 56.6408 35.9226C58.3127 41.9335 58.3568 45.0149 58.3852 46.9979C58.3893 47.2893 58.3932 47.5571 58.4019 47.8069C58.4751 49.9303 57.8039 51.4013 57.1351 52.011C56.9479 52.1815 56.703 52.3111 56.5203 52.3993C56.3143 52.4989 56.0808 52.595 55.8524 52.6819C55.4934 52.8185 55.1162 52.9439 54.8193 53.036C54.7426 53.5199 54.6569 54.068 54.5664 54.6607C55.4039 55.5463 57.0177 56.903 59.1068 58.0366C61.2176 59.1822 63.7558 60.0689 66.4253 60.0605C71.854 60.0435 76.7576 56.8285 78.5024 55.2325C78.5054 55.2299 78.5085 55.2271 78.5113 55.2245ZM94.8638 140.864C95.4616 140.626 96.2927 140.378 97.1838 140.274C97.1938 140.273 97.2038 140.272 97.2138 140.27L96.2738 141.186L94.8638 140.864ZM43.3323 91.0015C43.0117 91.015 42.2231 91.1476 41.6779 91.5112C40.8479 92.0645 39.8199 92.9642 39.9739 94.8115C40.1293 96.6782 41.6358 97.936 43.2827 97.876C44.1379 97.8449 45.0483 97.4804 45.738 96.9004C46.4279 96.3193 46.8122 95.5993 46.8122 94.8893C46.8122 94.006 46.5298 93.0082 45.9513 92.2526C45.3979 91.5297 44.562 91.0061 43.3323 91.0015ZM81.4449 29.8147C79.6068 28.8822 77.7699 29.7493 77.09 30.314C76.6962 30.641 76.1118 30.5869 75.7847 30.1931C75.4577 29.7992 75.5118 29.2149 75.9056 28.8877C76.8878 28.072 79.5244 26.7615 82.2838 28.1615C82.7402 28.3931 82.9226 28.951 82.691 29.4075C82.4593 29.8641 81.9014 30.0464 81.4449 29.8147ZM67.4171 30.5607C66.5544 30.7439 65.8382 31.1295 65.4724 31.4013C65.0614 31.7066 64.4809 31.621 64.1756 31.2101C63.8702 30.7992 63.9558 30.2185 64.3668 29.9132C64.9306 29.4943 65.8899 28.9897 67.0322 28.7473C68.1859 28.5024 69.5838 28.5145 70.9458 29.2219C71.4001 29.4579 71.5771 30.0174 71.3411 30.4717C71.1052 30.9261 70.5457 31.1031 70.0913 30.8672C69.2052 30.407 68.2686 30.3801 67.4171 30.5607ZM74.8364 32.2074C75.3456 32.1534 75.8021 32.5223 75.8561 33.0314L76.4054 38.2077C76.4569 38.6932 76.1232 39.1354 75.6422 39.2189L72.1139 39.8316C71.6094 39.9192 71.1296 39.5813 71.042 39.077C70.9543 38.5725 71.2922 38.0926 71.7967 38.0051L74.4703 37.5407L74.0126 33.2271C73.9586 32.718 74.3274 32.2615 74.8364 32.2074Z" fill="var(--fill-0, black)"/>
</g>
</svg>
