<svg preserveAspectRatio="none" width="100%" height="100%" overflow="visible" style="display: block;" viewBox="0 0 30.2448 21.0156" fill="none" xmlns="http://www.w3.org/2000/svg">
<path id="vector" fill-rule="evenodd" clip-rule="evenodd" d="M15.4684 14.292L15.1224 13.5905L14.7765 14.292L14.0022 14.4044L14.5627 14.9506L14.4305 15.7209L15.1224 15.3567L15.8143 15.7209L15.6829 14.9506L16.2426 14.4044L15.4684 14.292ZM15.1224 5.29467L14.7765 5.99608L14.0022 6.1085L14.5627 6.65396L14.4305 7.42504L15.1224 7.06087L15.8143 7.42504L15.6829 6.65396L16.2426 6.1085L15.4684 5.99608L15.1224 5.29467ZM18.4055 13.0641L18.0587 12.3627L17.7127 13.0641L16.9393 13.1765L17.499 13.7227L17.3668 14.493L18.0587 14.1289L18.7514 14.493L18.6192 13.7227L19.1789 13.1765L18.4055 13.0641ZM19.6167 10.1436L19.2707 9.443L18.924 10.1436L18.1505 10.256L18.7102 10.8023L18.578 11.5726L19.2707 11.2092L19.9627 11.5726L19.8305 10.8023L20.3902 10.256L19.6167 10.1436ZM29.2157 18.434C29.2157 19.2897 28.519 19.9864 27.6632 19.9864H2.58163C1.72583 19.9864 1.02917 19.2897 1.02917 18.434V2.58162C1.02917 1.72504 1.72583 1.02917 2.58163 1.02917H27.6632C28.519 1.02917 29.2157 1.72504 29.2157 2.58162V18.434ZM27.6632 0H2.58162C1.15821 0 0 1.15821 0 2.58162V18.434C0 19.8574 1.15821 21.0156 2.58162 21.0156H27.6632C29.0866 21.0156 30.2448 19.8574 30.2448 18.434V2.58162C30.2448 1.15821 29.0866 0 27.6632 0V0ZM17.3668 8.65292L18.0587 8.28875L18.7514 8.65292L18.6192 7.88183L19.1789 7.33637L18.4055 7.22396L18.0587 6.52254L17.7127 7.22396L16.9393 7.33637L17.499 7.88183L17.3668 8.65292ZM12.1861 6.52254L11.8402 7.22396L11.0659 7.33637L11.6256 7.88183L11.4934 8.65292L12.1861 8.28875L12.878 8.65292L12.7458 7.88183L13.3055 7.33637L12.5321 7.22396L12.1861 6.52254ZM11.5346 10.8023L12.0943 10.256L11.3208 10.1436L10.9749 9.443L10.6281 10.1436L9.85467 10.256L10.4144 10.8023L10.2822 11.5726L10.9749 11.2092L11.6668 11.5726L11.5346 10.8023ZM12.5321 13.0641L12.1861 12.3627L11.8402 13.0641L11.0659 13.1765L11.6256 13.7227L11.4934 14.493L12.1861 14.1289L12.878 14.493L12.7458 13.7227L13.3055 13.1765L12.5321 13.0641Z" fill="var(--fill-0, black)"/>
</svg>
