<svg preserveAspectRatio="none" width="100%" height="100%" overflow="visible" style="display: block;" viewBox="0 0 22.4778 27.1344" fill="none" xmlns="http://www.w3.org/2000/svg">
<path id="vector" fill-rule="evenodd" clip-rule="evenodd" d="M12.5186 5.07142C12.3785 5.28992 12.1616 5.44192 11.9075 5.49812C11.6533 5.55354 11.3929 5.50762 11.1736 5.3675C10.7207 5.07854 10.5885 4.47529 10.8775 4.02246C11.0627 3.73192 11.3778 3.57279 11.6993 3.57279C11.879 3.57279 12.0602 3.62267 12.2217 3.72637C12.6746 4.01533 12.8076 4.61858 12.5186 5.07142V5.07142ZM12.6485 3.059C11.8283 2.53492 10.7342 2.77637 10.2101 3.59654C9.68604 4.41671 9.92671 5.51079 10.7477 6.03487C11.0343 6.21854 11.3612 6.31275 11.6945 6.31275C11.822 6.31275 11.9502 6.29929 12.0777 6.27079C12.5384 6.16946 12.9319 5.89475 13.1852 5.49733C13.4393 5.09992 13.524 4.62729 13.4219 4.16654C13.3206 3.70658 13.0459 3.31312 12.6485 3.059V3.059ZM17.8141 23.2647C17.309 23.4452 16.7509 23.1808 16.5704 22.6741C16.3907 22.1683 16.6551 21.6101 17.161 21.4304C17.2686 21.3916 17.3787 21.3742 17.4863 21.3742C17.8869 21.3742 18.2637 21.6228 18.4055 22.021C18.5852 22.5269 18.32 23.085 17.8141 23.2647V23.2647ZM16.8957 20.6847C15.9782 21.0108 15.4985 22.0226 15.8246 22.9401C16.0811 23.6621 16.7635 24.1134 17.4895 24.1134C17.685 24.1134 17.8845 24.0801 18.0801 24.0113C18.9968 23.6843 19.4774 22.6725 19.1512 21.7558C18.8243 20.839 17.8133 20.3585 16.8957 20.6847V20.6847ZM16.5427 10.2473C16.6044 9.99479 16.7612 9.78183 16.9836 9.64725C17.138 9.55383 17.3106 9.50633 17.4855 9.50633C17.5639 9.50633 17.6431 9.51583 17.7207 9.53483C18.2416 9.66308 18.5622 10.1919 18.4332 10.7136C18.3049 11.2345 17.7769 11.5544 17.2544 11.4261C17.0026 11.3636 16.7889 11.2068 16.6543 10.9844C16.5197 10.7619 16.4801 10.4999 16.5427 10.2473V10.2473ZM17.0652 12.1948C17.2069 12.2297 17.3486 12.2463 17.4879 12.2463C18.2812 12.2463 19.004 11.7064 19.2019 10.9028C19.4346 9.95758 18.8551 8.99887 17.9107 8.76612C17.4523 8.65371 16.9781 8.72575 16.5743 8.96958C16.1706 9.21342 15.8864 9.60054 15.7732 10.0581C15.6608 10.5157 15.7336 10.9907 15.9774 11.3937C16.2213 11.7974 16.6076 12.0816 17.0652 12.1948V12.1948ZM18.3081 5.07142C18.0191 5.52346 17.4159 5.65725 16.963 5.3675C16.511 5.07854 16.378 4.47529 16.667 4.02246C16.9559 3.57042 17.56 3.43742 18.012 3.72637C18.4648 4.01533 18.5978 4.61858 18.3081 5.07142V5.07142ZM18.4387 3.059C17.6178 2.53492 16.5245 2.77637 15.9996 3.59654C15.4755 4.41671 15.717 5.51079 16.5371 6.03487C16.8308 6.2225 17.1594 6.31196 17.4848 6.31196C18.0674 6.31196 18.639 6.02379 18.9755 5.49733C19.2296 5.09992 19.3135 4.62729 19.2122 4.16654C19.1108 3.70658 18.8353 3.31312 18.4387 3.059V3.059ZM21.4486 24.5979C21.4486 25.4283 20.7725 26.1044 19.9413 26.1044H13.3087V8.7305H7.73696V2.53571C7.73696 1.70525 8.41304 1.02917 9.24429 1.02917H19.9413C20.7725 1.02917 21.4486 1.70525 21.4486 2.53571V24.5979ZM1.02917 14.056H12.2788V9.76046H1.02917V14.056ZM12.2788 26.1044H1.02917V23.9796H7.75596V17.5932H1.02917V15.0844H12.2788V26.1044ZM1.02917 23.1879H6.96508V18.3849H1.02917V23.1879ZM19.9413 0H9.24429C7.84621 0 6.70779 1.13763 6.70779 2.53571V8.7305H0V27.1344H19.9413C21.3402 27.1344 22.4778 25.996 22.4778 24.5979V2.53571C22.4778 1.13763 21.3402 0 19.9413 0V0ZM18.3081 16.9385C18.0191 17.3913 17.4167 17.5235 16.963 17.2346C16.511 16.9456 16.378 16.3424 16.667 15.8895C16.9559 15.4375 17.56 15.3045 18.012 15.5935C18.4648 15.8824 18.5978 16.4857 18.3081 16.9385V16.9385ZM18.4387 14.9261C18.0413 14.672 17.5679 14.588 17.1079 14.6894C16.6472 14.7915 16.2537 15.0662 15.9996 15.4636C15.4755 16.2838 15.717 17.3779 16.5371 17.902C16.8308 18.0896 17.1594 18.179 17.4848 18.179C18.0682 18.179 18.639 17.8909 18.9755 17.3644C19.2296 16.967 19.3135 16.4952 19.2122 16.0344C19.1108 15.5737 18.8353 15.1802 18.4387 14.9261V14.9261Z" fill="var(--fill-0, black)"/>
</svg>
