<svg preserveAspectRatio="none" width="100%" height="100%" overflow="visible" style="display: block;" viewBox="0 0 26.2137 26.4836" fill="none" xmlns="http://www.w3.org/2000/svg">
<path id="vector" fill-rule="evenodd" clip-rule="evenodd" d="M17.1372 12.5186C17.3795 12.3476 17.6106 12.2629 17.8307 12.2629C17.951 12.2629 18.054 12.2708 18.1379 12.2851C18.2202 12.3009 18.3112 12.3231 18.4102 12.354L18.6382 11.2163C18.4783 11.1411 18.2661 11.1031 18.0009 11.1031C17.7056 11.1031 17.4175 11.1997 17.1372 11.3929C16.857 11.586 16.6179 11.8647 16.4207 12.2289H16.3748L16.2846 11.2393H15.2047V16.8221H16.5118V13.4108C16.686 12.9865 16.8942 12.6888 17.1372 12.5186V12.5186ZM12.9715 0C9.02975 0 5.33267 1.75038 2.82863 4.73733L2.6125 0.1615L1.50575 0.21375L1.81846 6.86771H8.20563V5.75937H3.42317C5.71742 2.83337 9.2245 1.10833 12.9715 1.10833C19.6618 1.10833 25.1045 6.55104 25.1045 13.2414C25.1045 19.9318 19.6618 25.3745 12.9715 25.3745C7.23267 25.3745 2.23408 21.3006 1.08538 15.6869L0 15.9093C1.25321 22.036 6.70858 26.4836 12.9715 26.4836C20.273 26.4836 26.2137 20.543 26.2137 13.2414C26.2137 5.93987 20.273 0 12.9715 0V0ZM8.531 9.386V16.8221H9.84913V14.6498L10.9187 13.3206L12.9311 16.8221H14.3854L11.7135 12.2851L13.999 9.386H12.5329L9.88396 12.7632H9.84913V9.386H8.531Z" fill="var(--fill-0, black)"/>
</svg>
