<svg preserveAspectRatio="none" width="100%" height="100%" overflow="visible" style="display: block;" viewBox="0 0 22.5957 26.2236" fill="none" xmlns="http://www.w3.org/2000/svg">
<path id="vector" d="M22.5957 0.510742V26.2139L22.0859 26.2236H2.69824L2.68848 25.7139V24.8428H1.34863L1.33984 24.4326V21.4541H1.24902C0.560049 21.4541 4.23713e-05 20.894 0 20.2051C0 19.5161 0.560023 18.9561 1.24902 18.9561H1.33984V14.1826H1.24902C0.560023 14.1826 0 13.6226 0 12.9336C0.000220082 12.2448 0.560159 11.6846 1.24902 11.6846H1.33984V6.91309H1.24902C0.560044 6.91309 3.38457e-05 6.35303 0 5.66406C0 4.97506 0.560023 4.41504 1.24902 4.41504H1.33984V1.39062L2.68848 1.38477V0.0107422L3.19824 0H22.5859L22.5957 0.510742ZM3.68848 4.41504H3.90039C4.58921 4.41525 5.14941 4.97519 5.14941 5.66406C5.14938 6.3529 4.58919 6.91287 3.90039 6.91309H3.68848V11.6846H3.90039C4.58908 11.6848 5.14919 12.2449 5.14941 12.9336C5.14941 13.6225 4.58921 14.1824 3.90039 14.1826H3.68848V18.9561H3.90039C4.58921 18.9563 5.14941 19.5162 5.14941 20.2051C5.14937 20.8939 4.58919 21.4539 3.90039 21.4541H3.68848V25.2236H21.5957V1H3.68848V4.41504ZM2.13867 24.043H2.68652V21.4541H2.13867V24.043ZM1.24902 19.7559C1.00202 19.7559 0.799805 19.9571 0.799805 20.2051C0.799847 20.453 1.00205 20.6543 1.24902 20.6543H3.90039C4.14719 20.6541 4.34859 20.4529 4.34863 20.2051C4.34863 19.9572 4.14721 19.7561 3.90039 19.7559H1.24902ZM17.3936 19.9648H7.89062V19.1641H17.3936V19.9648ZM2.13867 18.9551H2.68652V14.1826H2.13867V18.9551ZM17.3936 17.4541H7.89062V16.6543H17.3936V17.4541ZM12.6416 3.21094C15.7495 3.21094 18.2782 5.7388 18.2783 8.84668C18.2783 11.9547 15.7496 14.4834 12.6416 14.4834C9.53372 14.4833 7.00586 11.9546 7.00586 8.84668C7.006 5.73888 9.53381 3.21108 12.6416 3.21094ZM12.6416 4.21094C10.0848 4.21108 8.006 6.29088 8.00586 8.84668C8.00586 11.4036 10.0847 13.4833 12.6416 13.4834C15.1976 13.4834 17.2783 11.4037 17.2783 8.84668C17.2782 6.2908 15.1975 4.21094 12.6416 4.21094ZM1.24902 12.4854C1.00216 12.4854 0.800026 12.6868 0.799805 12.9336C0.799805 13.1816 1.00202 13.3838 1.24902 13.3838H3.90039C4.14721 13.3836 4.34863 13.1815 4.34863 12.9336C4.34841 12.6869 4.14708 12.4856 3.90039 12.4854H1.24902ZM2.13867 11.6846H2.68652V6.91309H2.13867V11.6846ZM13.1416 6.05371V8.34766H15.4346V9.34766H13.1416V11.6406H12.1416V9.34766H9.84863V8.34766H12.1416V6.05371H13.1416ZM1.24902 5.21484C1.00202 5.21484 0.799805 5.41606 0.799805 5.66406C0.799839 5.91203 1.00204 6.11328 1.24902 6.11328H3.90039C4.14719 6.11307 4.3486 5.9119 4.34863 5.66406C4.34863 5.41619 4.14721 5.21506 3.90039 5.21484H1.24902ZM2.13867 4.41504H2.68652V2.18066H2.13867V4.41504Z" fill="var(--fill-0, black)"/>
</svg>
