<svg preserveAspectRatio="none" width="100%" height="100%" overflow="visible" style="display: block;" viewBox="0 0 17.571 34.485" fill="none" xmlns="http://www.w3.org/2000/svg">
<path id="vector" fill-rule="evenodd" clip-rule="evenodd" d="M10.1848 11.6858C10.4049 11.6858 10.5822 11.5069 10.5822 11.2876C10.5822 11.0683 10.4049 10.8902 10.1848 10.8902C9.9655 10.8902 9.78737 11.0683 9.78737 11.2876C9.78737 11.5069 9.9655 11.6858 10.1848 11.6858V11.6858ZM5.9945 11.6858C6.21379 11.6858 6.39192 11.5069 6.39192 11.2876C6.39192 11.0683 6.21379 10.8902 5.9945 10.8902C5.77521 10.8902 5.59708 11.0683 5.59708 11.2876C5.59708 11.5069 5.77521 11.6858 5.9945 11.6858V11.6858ZM10.3297 26.7845C10.7326 26.7845 11.0612 27.1122 11.0612 27.516C11.0612 27.9197 10.7326 28.2475 10.3297 28.2475H8.55079V25.9112H9.22212C9.42004 25.9112 9.58075 26.072 9.58075 26.2699V26.7845H10.3297ZM9.53562 33.455C5.69683 33.455 2.57212 30.8346 2.53254 27.603C3.81029 28.5839 5.51475 29.1721 7.52083 29.2576V29.2774H10.3297C11.3002 29.2774 12.0903 28.4873 12.0903 27.516C12.0903 26.6079 11.3992 25.8574 10.5149 25.7648C10.313 25.2486 9.80954 24.8813 9.22212 24.8813H8.03542C5.65408 24.8813 4.39533 23.9923 4.39533 22.3092C4.39533 21.9308 4.446 21.6117 4.55129 21.3346L3.58862 20.9705C3.439 21.3663 3.36617 21.8033 3.36617 22.3092C3.36617 23.3463 3.78337 25.6999 7.52083 25.8978V28.234C4.41671 28.0757 1.02917 26.4615 1.02917 22.3092C1.02917 20.2255 1.90237 18.5828 3.56092 17.5346C4.78483 18.54 6.31275 19.0903 7.904 19.0903H8.21908C9.77392 19.0903 11.2757 18.5614 12.487 17.5948C14.0932 18.6058 15.0417 20.125 15.0417 21.7154C15.0417 21.9561 15.0195 22.1944 14.9783 22.4311C14.2904 21.8864 13.4876 21.4368 12.5875 21.1177L12.2431 22.0875C14.854 23.013 16.5411 25.1544 16.5411 27.5421C16.5411 30.8022 13.399 33.455 9.53562 33.455V33.455ZM15.831 23.2204C15.9806 22.7287 16.0708 22.2252 16.0708 21.7154C16.0708 19.65 14.8057 17.7056 12.6872 16.5173L12.3674 16.3368L12.0927 16.5815C11.024 17.5354 9.64804 18.0603 8.21908 18.0603H7.904C6.47821 18.0603 5.11258 17.541 4.04621 16.5957L3.86254 16.1769L3.36775 16.4524C1.19621 17.6621 0 19.7418 0 22.3092C0 24.0437 0.566833 25.5368 1.56592 26.6942C1.52633 26.9752 1.49942 27.2587 1.49942 27.5421C1.49942 31.3698 5.10467 34.485 9.53562 34.485C13.9658 34.485 17.571 31.3698 17.571 27.5421C17.571 25.931 16.9353 24.4213 15.831 23.2204V23.2204ZM1.85329 9.46913H2.05992V10.6891H1.85329C1.51604 10.6891 1.24292 10.416 1.24292 10.0795C1.24292 9.74304 1.51604 9.46913 1.85329 9.46913V9.46913ZM3.08908 9.46913H3.66542C4.86796 9.46913 5.91929 8.80333 6.46871 7.82167C7.02921 8.80413 8.08767 9.46913 9.29733 9.46913H13.0348V11.0469C13.0348 13.7022 10.8743 15.8618 8.21908 15.8618H7.904C5.24954 15.8618 3.08908 13.7022 3.08908 11.0469V9.46913ZM3.08908 8.43204C3.08908 5.77679 5.24954 3.61712 7.904 3.61712H8.21908C10.8743 3.61712 13.0348 5.77679 13.0348 8.43204V8.63708H9.29733C7.96179 8.63708 6.87563 7.55092 6.87563 6.21617V6.04675H6.04438V6.25892C6.04438 7.57071 4.97721 8.63708 3.66542 8.63708H3.08908V8.43204ZM8.06154 1.02917C9.07963 1.02917 9.90533 1.83904 9.94333 2.84762C9.39788 2.67821 8.81917 2.58717 8.21908 2.58717H7.904C7.30392 2.58717 6.72521 2.67821 6.17975 2.84762C6.21775 1.83904 7.04425 1.02917 8.06154 1.02917V1.02917ZM14.0632 9.46913H14.2706C14.607 9.46913 14.881 9.74304 14.881 10.0795C14.881 10.416 14.607 10.6891 14.2706 10.6891H14.0632V9.46913ZM1.85329 11.5211H2.08367C2.32671 14.5223 4.84104 16.8918 7.904 16.8918H8.21908C11.282 16.8918 13.7972 14.5223 14.0394 11.5211H14.2706C15.0654 11.5211 15.7122 10.8743 15.7122 10.0795C15.7122 9.28467 15.0654 8.63708 14.2706 8.63708H14.0632V8.43204C14.0632 6.20746 12.8139 4.27025 10.9796 3.28304V2.91808C10.9796 1.30942 9.671 0 8.06154 0C6.45287 0 5.14346 1.30942 5.14346 2.91808V3.28304C3.30917 4.27025 2.05992 6.20746 2.05992 8.43204V8.63708H1.85329C1.05767 8.63708 0.410875 9.28467 0.410875 10.0795C0.410875 10.8743 1.05767 11.5211 1.85329 11.5211V11.5211Z" fill="var(--fill-0, black)"/>
</svg>
