<svg preserveAspectRatio="none" width="100%" height="100%" overflow="visible" style="display: block;" viewBox="0 0 20.9127 30.0129" fill="none" xmlns="http://www.w3.org/2000/svg">
<path id="vector" fill-rule="evenodd" clip-rule="evenodd" d="M3.14846 9.33058H4.54892V8.61808H3.14846V9.33058ZM2.01717 15.2966H7.52796V5.24954H2.01717V15.2966ZM7.52796 19.2605C7.52796 20.7797 6.29138 22.0162 4.77296 22.0162C3.25375 22.0162 2.01717 20.7797 2.01717 19.2605V16.0083H7.52796V19.2605ZM5.38413 23.4452C5.38413 23.7825 5.10942 24.0564 4.77296 24.0564C4.43571 24.0564 4.161 23.7825 4.161 23.4452V22.9829C4.36129 23.0161 4.56317 23.0446 4.77296 23.0446C4.98196 23.0446 5.18383 23.0161 5.38413 22.9829V23.4452ZM3.59021 4.21958H5.95412V1.02838H3.59021V4.21958ZM6.98408 1.02838H8.53338V0H1.01254V1.02838H2.56183V4.22037H0V5.24875H0.988V19.2605C0.988 20.7567 1.86833 22.0416 3.13183 22.6551V23.4452C3.13183 24.1688 3.60604 24.7776 4.25838 24.9953V30.0129H5.28675V24.9953C5.93908 24.7776 6.41329 24.1688 6.41329 23.4452V22.6551C7.67679 22.0416 8.55713 20.7567 8.55713 19.2605V5.24875H9.54513V4.22037H6.98408V1.02838ZM3.14846 12.6698H4.54892V11.9573H3.14846V12.6698ZM19.8835 13.2129H12.4252V13.148C12.4252 12.35 12.7664 11.5868 13.3625 11.0548C13.8201 10.6471 14.1217 10.1167 14.2373 9.54117H18.0698C18.1838 10.1096 18.4846 10.644 18.9454 11.0548C19.5415 11.5868 19.8835 12.35 19.8835 13.148V13.2129ZM12.4252 18.7926H19.8835V13.9254H12.4252V18.7926ZM19.8835 20.5897C19.8835 21.2634 19.3365 21.8104 18.6627 21.8104H13.646C12.9722 21.8104 12.4252 21.2634 12.4252 20.5897V19.5051H19.8835V20.5897ZM13.8336 6.52967C13.8336 6.48612 13.8684 6.45129 13.9112 6.45129H18.3975C18.4403 6.45129 18.4751 6.48612 18.4751 6.52967V8.51279H13.8336V6.52967ZM19.631 10.2869C19.3911 10.0732 19.2288 9.81587 19.1354 9.54117H19.5043V6.52967C19.5043 5.9185 19.0079 5.42212 18.3975 5.42212H13.9112C13.3008 5.42212 12.8044 5.9185 12.8044 6.52967V9.54117H13.1733C13.0799 9.81587 12.9176 10.0732 12.6778 10.2869C11.8631 11.0145 11.396 12.0571 11.396 13.148V20.5897C11.396 21.831 12.4046 22.8396 13.646 22.8396H18.6627C19.9033 22.8396 20.9127 21.831 20.9127 20.5897V13.148C20.9127 12.0571 20.4456 11.0145 19.631 10.2869V10.2869Z" fill="var(--fill-0, black)"/>
</svg>
