<svg preserveAspectRatio="none" width="100%" height="100%" overflow="visible" style="display: block;" viewBox="0 0 30.1823 22.5973" fill="none" xmlns="http://www.w3.org/2000/svg">
<path id="vector" fill-rule="evenodd" clip-rule="evenodd" d="M18.5709 8.83896C19.247 9.48733 19.2692 10.5648 18.6216 11.2393L15.2942 14.6807L11.9684 11.2401C11.32 10.5648 11.3422 9.48733 12.0183 8.83896C12.3468 8.52387 12.7704 8.36633 13.1939 8.36633C13.6404 8.36633 14.0869 8.54129 14.4194 8.88804L15.2942 9.80004L16.1698 8.88804C16.8182 8.21275 17.8948 8.19058 18.5709 8.83896V8.83896ZM15.5982 8.34021L15.2942 8.65688L14.991 8.34021C14.0402 7.34983 12.4608 7.31737 11.4697 8.26737C10.4793 9.21817 10.4468 10.7983 11.3984 11.7895L15.2942 15.8191L19.1916 11.7887C20.1424 10.7983 20.1099 9.21817 19.1187 8.26737C18.1284 7.31737 16.549 7.34983 15.5982 8.34021V8.34021ZM20.4614 13.9634L20.6886 14.7218L22.549 14.1645C21.375 17.2195 18.4086 19.2977 15.0907 19.2977C11.5227 19.2977 8.35842 16.8965 7.39496 13.4575L6.63258 13.6713C7.69104 17.4499 11.1696 20.0893 15.0907 20.0893C18.6295 20.0893 21.8009 17.9368 23.165 14.74L23.7389 16.3725L24.4862 16.1096L23.4191 13.0767L20.4614 13.9634ZM29.1523 21.5682H1.02917V1.02917H24.7214V5.46092H29.1523V21.5682ZM25.7498 1.75671L28.4248 4.43175H25.7498V1.75671ZM25.4489 0H0V22.5973H30.1823V4.73258L25.4489 0ZM9.72008 8.63392L9.49287 7.8755L7.63246 8.43363C8.8065 5.37779 11.7729 3.29967 15.0907 3.29967C18.6588 3.29967 21.8231 5.70079 22.7865 9.139L23.5489 8.92604C22.4905 5.14742 19.0127 2.508 15.0907 2.508C11.552 2.508 8.38137 4.66054 7.01654 7.8565L6.44258 6.22408L5.69604 6.48692L6.76242 9.51979L9.72008 8.63392Z" fill="var(--fill-0, black)"/>
</svg>
