<svg preserveAspectRatio="none" width="100%" height="100%" overflow="visible" style="display: block;" viewBox="0 0 24.7823 26.7314" fill="none" xmlns="http://www.w3.org/2000/svg">
<path id="vector" fill-rule="evenodd" clip-rule="evenodd" d="M16.3313 19.0966H16.6567C16.796 19.0966 16.9084 18.9834 16.9084 18.8456V15.1667C16.9084 15.0274 16.796 14.9158 16.6567 14.9158H16.3313C16.1928 14.9158 16.0803 15.0274 16.0803 15.1667V18.8456C16.0803 18.9834 16.1928 19.0966 16.3313 19.0966V19.0966ZM9.95046 22.9132L16.45 11.0841L23.032 22.9132H9.95046ZM12.8187 25.7015H1.02996V20.8541H6.89779V11.5924H1.02996V11.0113C1.02996 7.7615 3.67412 5.11733 6.92392 5.11733C10.1753 5.11733 12.8187 7.7615 12.8187 11.0113V15.5555L8.21117 23.9432H12.8187V25.7015ZM1.02996 20.0616H6.10612V12.384H1.02996V20.0616ZM9.15958 3.534V4.465C8.45737 4.22433 7.70687 4.08737 6.92392 4.08737C6.14096 4.08737 5.39125 4.22433 4.68825 4.465V3.534H9.15958ZM3.81267 2.50404H10.0367V1.02996H3.81267V2.50404ZM16.4445 8.95612L13.8486 13.6808V11.0113C13.8486 8.37425 12.365 6.07762 10.1895 4.90833V3.534H11.0667V0H2.78271V3.534H3.65829V4.90912C1.48358 6.07842 0 8.37425 0 11.0113V26.7314H13.8486V23.9432H24.7823L16.4445 8.95612ZM16.4944 20.064C16.1373 20.064 15.8484 20.3537 15.8484 20.7108C15.8484 21.067 16.1373 21.3568 16.4944 21.3568C16.8506 21.3568 17.1404 21.067 17.1404 20.7108C17.1404 20.3537 16.8506 20.064 16.4944 20.064V20.064Z" fill="var(--fill-0, black)"/>
</svg>
