<svg preserveAspectRatio="none" width="100%" height="100%" overflow="visible" style="display: block;" viewBox="0 0 19 28" fill="none" xmlns="http://www.w3.org/2000/svg">
<path id="Union" d="M19 28H7L0 21V0H19V28ZM1.09961 20.4502H7.5498V26.9004H17.9004V1.09961H1.09961V20.4502ZM2.10547 21.5498L6.4502 25.8945V21.5498H2.10547ZM12.168 5.34961C13.9843 5.34981 15.6504 6.9805 15.6504 8.94238C15.6504 9.95107 15.356 10.9237 14.9111 11.8232C13.7315 14.208 11.3833 16.2789 9.9541 17.4951L9.52734 17.8574L9.10547 17.4893C8.97058 17.3714 8.82315 17.2444 8.66602 17.1094C7.27998 15.9182 5.13144 14.0723 4.04688 11.8164C3.62322 10.9352 3.34963 9.97137 3.34961 8.94238C3.34961 6.96154 5.10083 5.34961 6.89844 5.34961C8.21235 5.3497 9.03034 6.03042 9.53516 6.59277C10.0592 6.02145 10.8913 5.34961 12.168 5.34961ZM12.168 6.64941C11.153 6.64941 10.6204 7.30441 10.1406 7.89453C10.1052 7.93815 10.0702 7.98179 10.0352 8.02441L9.54395 8.62109L9.04004 8.03418C8.97127 7.95407 8.90359 7.87172 8.83594 7.78906C8.37583 7.22694 7.903 6.64951 6.89844 6.64941C5.79784 6.64941 4.65039 7.7003 4.65039 8.94238C4.65041 9.73654 4.86047 10.5077 5.21875 11.2529C6.17615 13.2443 8.10248 14.9057 9.5127 16.1221C9.5201 16.1285 9.52778 16.1352 9.53516 16.1416C10.9527 14.9116 12.7994 13.1603 13.7461 11.2461C14.1293 10.4712 14.3496 9.6979 14.3496 8.94238C14.3496 7.68158 13.2496 6.64962 12.168 6.64941Z" fill="var(--fill-0, black)"/>
</svg>
