<svg preserveAspectRatio="none" width="100%" height="100%" overflow="visible" style="display: block;" viewBox="0 0 25.978 23.473" fill="none" xmlns="http://www.w3.org/2000/svg">
<path id="vector" fill-rule="evenodd" clip-rule="evenodd" d="M24.978 8.42H1V3.514H4.057V4.441C4.057 5.409 4.844 6.195 5.811 6.195C6.778 6.195 7.565 5.409 7.565 4.441V3.514H18.317V4.441C18.317 5.409 19.104 6.195 20.071 6.195C21.038 6.195 21.825 5.409 21.825 4.441V3.514H24.978V8.42ZM1 22.473H24.978V9.42H1V22.473ZM5.057 1.754C5.057 1.338 5.395 1 5.811 1C6.227 1 6.565 1.338 6.565 1.754V4.441C6.565 4.857 6.227 5.195 5.811 5.195C5.395 5.195 5.057 4.857 5.057 4.441V1.754ZM19.317 1.754C19.317 1.338 19.655 1 20.071 1C20.487 1 20.825 1.338 20.825 1.754V4.441C20.825 4.857 20.487 5.195 20.071 5.195C19.655 5.195 19.317 4.857 19.317 4.441V1.754ZM21.825 2.514V1.754C21.825 0.787 21.038 0 20.071 0C19.104 0 18.317 0.787 18.317 1.754V2.514H7.565V1.754C7.565 0.787 6.778 0 5.811 0C4.844 0 4.057 0.787 4.057 1.754V2.514H0V23.473H25.978V2.514H21.825ZM16.098 17.59C16.757 17.59 17.292 17.056 17.292 16.396C17.292 15.737 16.757 15.202 16.098 15.202C15.438 15.202 14.904 15.737 14.904 16.396C14.904 17.056 15.438 17.59 16.098 17.59V17.59Z" fill="var(--fill-0, black)"/>
</svg>
