<svg preserveAspectRatio="none" width="100%" height="100%" overflow="visible" style="display: block;" viewBox="0 0 30.8774 28.3527" fill="none" xmlns="http://www.w3.org/2000/svg">
<path id="vector" fill-rule="evenodd" clip-rule="evenodd" d="M19.0665 10.9986V14.7749H14.7717V19.0657H10.9939V14.7749H6.69908V10.9986H10.9939V6.70067H14.7717V10.9986H19.0665ZM15.8009 5.6715H9.96471V9.96946H5.67071V15.804H9.96471V20.0949H15.8009V15.804H20.0957V9.96946H15.8009V5.6715ZM22.4263 19.3254H22.7517C22.8902 19.3254 23.0035 19.4378 23.0035 19.5771V23.2544C23.0035 23.3937 22.8902 23.5062 22.7517 23.5062H22.4263C22.2878 23.5062 22.1754 23.3937 22.1754 23.2544V19.5771C22.1754 19.4378 22.2878 19.3254 22.4263 19.3254V19.3254ZM22.5894 24.4736C22.9457 24.4736 23.2354 24.7633 23.2354 25.1204C23.2354 25.4774 22.9457 25.7664 22.5894 25.7664C22.2324 25.7664 21.9426 25.4774 21.9426 25.1204C21.9426 24.7633 22.2324 24.4736 22.5894 24.4736V24.4736ZM12.8828 24.7372C6.34679 24.7372 1.02917 19.4196 1.02917 12.8828C1.02917 6.34679 6.34679 1.02917 12.8828 1.02917C19.4188 1.02917 24.7372 6.34679 24.7372 12.8828C24.7372 14.079 24.5591 15.2483 24.2123 16.3733L22.5395 13.3665L16.6282 24.126C15.4233 24.5274 14.1661 24.7372 12.8828 24.7372V24.7372ZM16.0463 27.3244L22.5451 15.4929L29.127 27.3244H16.0463ZM30.8774 28.3527L24.8765 17.5679C25.4608 16.0748 25.7656 14.5025 25.7656 12.8828C25.7656 5.77917 19.9864 0 12.8828 0C5.77917 0 0 5.77917 0 12.8828C0 19.9872 5.77917 25.7656 12.8828 25.7656C13.9175 25.7656 14.9372 25.6381 15.9307 25.3967L14.3062 28.3527H30.8774Z" fill="var(--fill-0, black)"/>
</svg>
