<svg preserveAspectRatio="none" width="100%" height="100%" overflow="visible" style="display: block;" viewBox="0 0 32.1243 28.1612" fill="none" xmlns="http://www.w3.org/2000/svg">
<path id="vector" fill-rule="evenodd" clip-rule="evenodd" d="M12.3262 2.92283H19.8479V2.13117H12.3262V2.92283ZM5.58837 23.4349H26.5858V16.61H5.58837V23.4349ZM5.58837 15.58H26.5858V5.29625H5.58837V15.58ZM5.58837 4.26629H26.5858V1.02996H5.58837V4.26629ZM23.5948 26.1377C23.5948 26.6855 23.1032 27.1312 22.4976 27.1312C21.8927 27.1312 21.4011 26.6855 21.4011 26.1377V24.4649H23.5948V26.1377ZM10.7738 26.1377C10.7738 26.6855 10.2814 27.1312 9.67733 27.1312C9.07171 27.1312 8.58008 26.6855 8.58008 26.1377V24.4649H10.7738V26.1377ZM4.55921 24.4649H7.55012V26.1377C7.55012 27.2531 8.50408 28.1612 9.67733 28.1612C10.849 28.1612 11.803 27.2531 11.803 26.1377V24.4649H20.3712V26.1377C20.3712 27.2531 21.3251 28.1612 22.4976 28.1612C23.67 28.1612 24.624 27.2531 24.624 26.1377V24.4649H27.6157V0H4.55921V24.4649ZM9.67733 20.7512C9.15404 20.7512 8.72971 20.326 8.72971 19.8035C8.72971 19.2818 9.15404 18.8567 9.67733 18.8567C10.199 18.8567 10.6242 19.2818 10.6242 19.8035C10.6242 20.326 10.199 20.7512 9.67733 20.7512V20.7512ZM9.67733 18.065C8.71783 18.065 7.93804 18.8448 7.93804 19.8035C7.93804 20.763 8.71783 21.5428 9.67733 21.5428C10.6353 21.5428 11.4158 20.763 11.4158 19.8035C11.4158 18.8448 10.6353 18.065 9.67733 18.065V18.065ZM22.4976 20.7512C21.9759 20.7512 21.5508 20.326 21.5508 19.8035C21.5508 19.2818 21.9759 18.8567 22.4976 18.8567C23.0201 18.8567 23.4452 19.2818 23.4452 19.8035C23.4452 20.326 23.0201 20.7512 22.4976 20.7512V20.7512ZM22.4976 18.065C21.5389 18.065 20.7591 18.8448 20.7591 19.8035C20.7591 20.763 21.5389 21.5428 22.4976 21.5428C23.4563 21.5428 24.2369 20.763 24.2369 19.8035C24.2369 18.8448 23.4563 18.065 22.4976 18.065V18.065ZM31.0951 10.9844C31.0951 11.3889 30.7665 11.7175 30.362 11.7175C29.9582 11.7175 29.6289 11.3889 29.6289 10.9844V6.76004C29.6289 6.3555 29.9582 6.02696 30.362 6.02696C30.7665 6.02696 31.0951 6.3555 31.0951 6.76004V10.9844ZM30.362 4.997C29.3906 4.997 28.5998 5.78787 28.5998 6.76004V10.9844C28.5998 11.9565 29.3906 12.7474 30.362 12.7474C31.3334 12.7474 32.1243 11.9565 32.1243 10.9844V6.76004C32.1243 5.78787 31.3334 4.997 30.362 4.997V4.997ZM2.49533 10.9844C2.49533 11.3889 2.166 11.7175 1.76225 11.7175C1.35771 11.7175 1.02917 11.3889 1.02917 10.9844V6.76004C1.02917 6.3555 1.35771 6.02696 1.76225 6.02696C2.166 6.02696 2.49533 6.3555 2.49533 6.76004V10.9844ZM1.76225 4.997C0.790083 4.997 0 5.78787 0 6.76004V10.9844C0 11.9565 0.790083 12.7474 1.76225 12.7474C2.73363 12.7474 3.5245 11.9565 3.5245 10.9844V6.76004C3.5245 5.78787 2.73363 4.997 1.76225 4.997V4.997Z" fill="var(--fill-0, black)"/>
</svg>
