<svg preserveAspectRatio="none" width="100%" height="100%" overflow="visible" style="display: block;" viewBox="0 0 18.8995 28.9283" fill="none" xmlns="http://www.w3.org/2000/svg">
<path id="vector" fill-rule="evenodd" clip-rule="evenodd" d="M11.5734 9.09783C11.7927 9.09783 11.9708 8.91971 11.9708 8.70042C11.9708 8.48033 11.7927 8.30221 11.5734 8.30221C11.3533 8.30221 11.176 8.48033 11.176 8.70042C11.176 8.91971 11.3533 9.09783 11.5734 9.09783V9.09783ZM3.24108 6.86137H3.4485V8.12171H3.24108C2.89354 8.12171 2.61092 7.83908 2.61092 7.49154C2.61092 7.144 2.89354 6.86137 3.24108 6.86137V6.86137ZM4.47767 6.86137H5.05321C6.26208 6.86137 7.31579 6.18608 7.85729 5.19254C8.40908 6.18687 9.46992 6.86137 10.6859 6.86137H14.4226V8.45975C14.4226 11.115 12.2629 13.2747 9.60767 13.2747H9.29258C6.63733 13.2747 4.47767 11.115 4.47767 8.45975V6.86137ZM4.47767 5.84487C4.47767 3.18962 6.63733 1.02917 9.29258 1.02917H9.60767C12.2629 1.02917 14.4226 3.18962 14.4226 5.84487V6.06971H10.6859C9.33929 6.06971 8.24362 4.97483 8.24362 3.62821V3.45879H7.45196V3.67096C7.45196 4.99304 6.37608 6.06971 5.05321 6.06971H4.47767V5.84487ZM15.4517 6.86137H15.6592C16.0067 6.86137 16.2893 7.144 16.2893 7.49154C16.2893 7.83908 16.0067 8.12171 15.6592 8.12171H15.4517V6.86137ZM3.24108 8.91338H3.47146C3.70421 11.9241 6.22329 14.3038 9.29258 14.3038H9.60767C12.677 14.3038 15.196 11.9241 15.4288 8.91338H15.6592C16.4429 8.91338 17.081 8.27529 17.081 7.49154C17.081 6.707 16.4429 6.06971 15.6592 6.06971H15.4517V5.84488C15.4517 2.622 12.8298 0 9.60767 0H9.29258C6.06971 0 3.4485 2.622 3.4485 5.84488V6.06971H3.24108C2.45733 6.06971 1.81925 6.707 1.81925 7.49154C1.81925 8.27529 2.45733 8.91338 3.24108 8.91338V8.91338ZM7.38308 9.09783C7.60237 9.09783 7.7805 8.91971 7.7805 8.70042C7.7805 8.48033 7.60237 8.30221 7.38308 8.30221C7.163 8.30221 6.98487 8.48033 6.98487 8.70042C6.98487 8.91971 7.163 9.09783 7.38308 9.09783V9.09783ZM17.8703 27.8991H1.02996V22.6068C1.02996 19.7355 2.82308 17.153 5.45933 16.116V20.444C4.80304 20.6134 4.31537 21.2056 4.31537 21.9141C4.31537 22.7541 4.99858 23.4381 5.83854 23.4381C6.6785 23.4381 7.36171 22.7541 7.36171 21.9141C7.36171 21.2056 6.87325 20.6134 6.21696 20.444V16.1144C8.25787 17.0058 10.6693 17.0026 12.707 16.1041V18.8828C11.9462 19.0562 11.3755 19.7355 11.3755 20.5477V22.9021H12.1331V20.5477C12.1331 20.0228 12.5606 19.5953 13.0862 19.5953C13.6111 19.5953 14.0386 20.0228 14.0386 20.5477V22.9021H14.7962V20.5477C14.7962 19.7355 14.2255 19.0562 13.4647 18.8828V16.1247C16.0882 17.1681 17.8703 19.7442 17.8703 22.6068V27.8991ZM5.83854 21.1486C6.26129 21.1486 6.60488 21.4922 6.60488 21.9141C6.60488 22.3369 6.26129 22.6805 5.83854 22.6805C5.41579 22.6805 5.07221 22.3369 5.07221 21.9141C5.07221 21.4922 5.41579 21.1486 5.83854 21.1486V21.1486ZM13.1258 14.9182L12.9255 14.8604L12.7411 14.9585C10.7263 16.0313 8.17317 16.0313 6.15917 14.9585L5.97471 14.8604L5.77363 14.9182C2.37421 15.9046 0 19.0657 0 22.6068V28.9283H18.8995V22.6068C18.8995 19.0657 16.5253 15.9046 13.1258 14.9182V14.9182Z" fill="var(--fill-0, black)"/>
</svg>
