<svg preserveAspectRatio="none" width="100%" height="100%" overflow="visible" style="display: block;" viewBox="0 0 15 31" fill="none" xmlns="http://www.w3.org/2000/svg">
<path id="Union" d="M12 0C13.6569 0 15 1.34315 15 3C15 4.65685 13.6569 6 12 6C10.5663 6 9.36915 4.99388 9.07227 3.64941H7.5C6.20213 3.64941 5.15039 4.70213 5.15039 6V14.8496H9.07227C9.3695 13.5056 10.5666 12.5 12 12.5C13.6569 12.5 15 13.8431 15 15.5C15 17.1569 13.6569 18.5 12 18.5C10.5663 18.5 9.36915 17.4939 9.07227 16.1494H5.15039V25C5.1506 26.2977 6.20226 27.3496 7.5 27.3496H9.07227C9.3695 26.0056 10.5666 25 12 25C13.6569 25 15 26.3431 15 28C15 29.6569 13.6569 31 12 31C10.5663 31 9.36915 29.9939 9.07227 28.6494H7.5C5.48429 28.6494 3.84982 27.0157 3.84961 25V16.1494H0V14.8496H3.84961V6C3.84961 3.98416 5.48416 2.34961 7.5 2.34961H9.07227C9.3695 1.00562 10.5666 0 12 0ZM12 26.2998C11.0611 26.2998 10.2998 27.0611 10.2998 28C10.2998 28.9389 11.0611 29.7002 12 29.7002C12.9389 29.7002 13.7002 28.9389 13.7002 28C13.7002 27.0611 12.9389 26.2998 12 26.2998ZM12 13.7998C11.0611 13.7998 10.2998 14.5611 10.2998 15.5C10.2998 16.4389 11.0611 17.2002 12 17.2002C12.9389 17.2002 13.7002 16.4389 13.7002 15.5C13.7002 14.5611 12.9389 13.7998 12 13.7998ZM12 1.2998C11.0611 1.2998 10.2998 2.06112 10.2998 3C10.2998 3.93888 11.0611 4.7002 12 4.7002C12.9389 4.7002 13.7002 3.93888 13.7002 3C13.7002 2.06112 12.9389 1.2998 12 1.2998Z" fill="var(--fill-0, black)"/>
</svg>
