<svg preserveAspectRatio="none" width="100%" height="100%" overflow="visible" style="display: block;" viewBox="0 0 41.3713 35.9219" fill="none" xmlns="http://www.w3.org/2000/svg">
<g id="Union">
<path d="M14.8751 14.7012H13.1056V13.8018H14.8751V14.7012Z" fill="var(--fill-0, black)"/>
<path d="M14.8751 10.4834H13.1056V9.58301H14.8751V10.4834Z" fill="var(--fill-0, black)"/>
<path fill-rule="evenodd" clip-rule="evenodd" d="M19.9073 1.29883H17.9503V4.02832H21.1857V5.32715H19.9376V7.78809C21.3612 6.60266 23.1913 5.88874 25.1886 5.88867C29.7241 5.88894 33.4012 9.56605 33.4015 14.1016C33.4015 14.9527 33.2693 15.773 33.0284 16.5449H36.3517L36.4298 16.5498C36.6103 16.5726 36.7741 16.6737 36.8751 16.8281L41.2696 23.5469C41.3952 23.7389 41.4051 23.9847 41.296 24.1865C41.1868 24.3882 40.9755 24.5136 40.7462 24.5137H36.9728V32.8242C36.9728 34.5386 35.5714 35.9216 33.8556 35.9219H7.71495C5.99887 35.9219 4.59777 34.5388 4.59777 32.8242V24.5137H0.62511C0.395709 24.5136 0.184489 24.3883 0.0753053 24.1865C-0.0337934 23.9847 -0.0237898 23.7389 0.101672 23.5469L4.49718 16.8281L4.54406 16.7646C4.66182 16.6263 4.8354 16.5451 5.01964 16.5449H10.3771V5.32715H9.12902V4.02832H12.3644V1.29883H10.4073V0H19.9073V1.29883ZM21.4484 24.2314C21.3329 24.4078 21.1357 24.5137 20.9249 24.5137H5.84777V32.8242C5.84777 33.8391 6.67983 34.6719 7.71495 34.6719H24.5636V19.4678L21.4484 24.2314ZM25.8136 34.6719H33.8556C34.8905 34.6716 35.7228 33.8389 35.7228 32.8242V24.5137H29.715C29.5044 24.5135 29.3079 24.4076 29.1925 24.2314L25.8136 19.0654V34.6719ZM1.78136 23.2637H20.588L24.1642 17.7949H5.35753L1.78136 23.2637ZM30.0528 23.2637H39.5909L36.0138 17.7949H26.4767L30.0528 23.2637ZM11.6769 16.5449H17.3487C17.1081 15.7729 16.9757 14.9528 16.9757 14.1016C16.9758 12.2412 17.595 10.5255 18.6378 9.14844V5.32812H11.6769V16.5449ZM25.1886 7.13867C21.3433 7.13882 18.226 10.2563 18.2257 14.1016C18.2257 14.9616 18.3838 15.7845 18.6691 16.5449H23.4884V15.8047H21.2384V12.4043H23.4884V10.1543H26.8888V12.4043H29.1388V15.8047H26.8888V16.5449H31.7071C31.9927 15.7845 32.1515 14.9616 32.1515 14.1016C32.1512 10.2564 29.0338 7.13894 25.1886 7.13867ZM24.3888 13.3047H22.1388V14.9043H24.3888V16.5449H25.9884V14.9043H28.2384V13.3047H25.9884V11.0547H24.3888V13.3047ZM13.6632 4.02734H16.6495V1.29883H13.6632V4.02734Z" fill="var(--fill-0, black)"/>
</g>
</svg>
