<svg preserveAspectRatio="none" width="100%" height="100%" overflow="visible" style="display: block;" viewBox="0 0 26.1899 28.3575" fill="none" xmlns="http://www.w3.org/2000/svg">
<path id="vector" fill-rule="evenodd" clip-rule="evenodd" d="M12.8163 3.36142C13.0894 3.36142 13.3111 3.13975 13.3111 2.86662C13.3111 2.5935 13.0894 2.37183 12.8163 2.37183C12.5432 2.37183 12.3215 2.5935 12.3215 2.86662C12.3215 3.13975 12.5432 3.36142 12.8163 3.36142V3.36142ZM25.3982 23.1301C25.3982 23.7856 24.8647 24.3184 24.21 24.3184H6.17262C6.422 23.9875 6.56925 23.5758 6.56925 23.1301V23.0209H25.3982V23.1301ZM24.6034 27.3283H1.02917V3.1635H8.45975L6.83446 4.25204V4.70487H2.61012V23.1301C2.61012 24.2218 3.49837 25.1101 4.59008 25.1101H24.21C24.3445 25.1101 24.476 25.0966 24.6034 25.0705V27.3283ZM9.60212 3.63612V1.02917H16.0297V3.63612L17.769 4.80146V5.62796H7.86362V4.80146L9.60212 3.63612ZM18.7981 6.65712V5.49654H22.2308V22.2292H5.77758V23.1301C5.77758 23.7856 5.24479 24.3184 4.59008 24.3184C3.93458 24.3184 3.40179 23.7856 3.40179 23.1301V5.49654H6.83446V6.65712H18.7981ZM17.0588 3.06058H24.6034V22.2292H23.0225V4.70487H18.7981V4.25204L17.0588 3.08671V3.06058ZM25.6326 22.2292V2.03142H17.0588V0H8.57375V2.13433H0V28.3575H25.6326V24.5013C25.9762 24.145 26.1899 23.6629 26.1899 23.1301V22.2292H25.6326ZM5.94146 11.9684H15.5657V11.1768H5.94146V11.9684ZM17.6288 11.9684H19.6911V11.1768H17.6288V11.9684ZM5.94146 18.1426H19.6911V17.351H5.94146V18.1426ZM5.94146 15.0551H19.6911V14.2635H5.94146V15.0551Z" fill="var(--fill-0, black)"/>
</svg>
