<svg preserveAspectRatio="none" width="100%" height="100%" overflow="visible" style="display: block;" viewBox="0 0 21.6838 26.9637" fill="none" xmlns="http://www.w3.org/2000/svg">
<path id="vector" fill-rule="evenodd" clip-rule="evenodd" d="M9.91483 25.9345H13.3681V19.693H9.91483V25.9345ZM8.88488 22.0894C4.43967 21.6096 1.02917 17.8698 1.02917 13.3359C1.02917 8.47668 4.98275 4.5223 9.84358 4.5223C10.5133 4.5223 11.1744 4.61493 11.8204 4.76376L11.7998 7.29155C11.1704 7.0873 10.5157 6.98043 9.84358 6.98043C6.33888 6.98043 3.48729 9.83201 3.48729 13.3359C3.48729 16.5153 5.83458 19.1483 8.88488 19.6131V22.0894ZM12.863 3.24455C12.8733 2.01351 13.8961 1.04293 15.1161 1.02947L15.523 1.03264C16.7548 1.04372 17.7484 2.05389 17.7389 3.28651L17.6676 11.6679L12.7918 11.6267L12.863 3.24455ZM16.3717 13.0272C16.3701 13.3233 16.2529 13.6003 16.0415 13.8078C15.831 14.0152 15.5483 14.1268 15.2562 14.126C14.6474 14.1205 14.155 13.6209 14.1598 13.0113L14.1621 12.6686L16.374 12.6868L16.3717 13.0272ZM21.6838 19.693V18.6638H9.84358C6.90571 18.6638 4.51567 16.2738 4.51567 13.3359C4.51567 10.3988 6.90571 8.0088 9.84358 8.0088C10.5189 8.0088 11.1704 8.14022 11.7903 8.38564L11.7539 12.6472L13.133 12.6583L13.1306 13.0042C13.1219 14.1798 14.0719 15.1449 15.2475 15.1544C15.2538 15.1552 15.2602 15.1552 15.2657 15.1552C15.8302 15.1552 16.3614 14.9375 16.7635 14.5408C17.1705 14.1403 17.3969 13.6051 17.4008 13.0351L17.4032 12.6947L18.6873 12.7058L18.7672 3.29522C18.7823 1.49576 17.3312 0.0193046 15.5317 0.00426298L15.1248 0.000304642C13.3182 -0.024237 11.8489 1.43718 11.8338 3.23664L11.8299 3.69501C11.1783 3.56122 10.5133 3.49314 9.84358 3.49314C4.41513 3.49314 0 7.90905 0 13.3359C0 18.4366 3.8665 22.6364 8.88487 23.1217V25.9345H4.60275V26.9637H18.6794V25.9345H14.3973V19.693H21.6838ZM11.6407 22.0759C11.9375 22.0759 12.1774 21.8361 12.1774 21.5392C12.1774 21.2431 11.9375 21.0032 11.6407 21.0032C11.3446 21.0032 11.1047 21.2431 11.1047 21.5392C11.1047 21.8361 11.3446 22.0759 11.6407 22.0759V22.0759Z" fill="var(--fill-0, black)"/>
</svg>
