<svg preserveAspectRatio="none" width="100%" height="100%" overflow="visible" style="display: block;" viewBox="0 0 28.6813 24.9977" fill="none" xmlns="http://www.w3.org/2000/svg">
<path id="vector" fill-rule="evenodd" clip-rule="evenodd" d="M25.5811 18.8361V9.86258C25.5811 8.76296 24.6865 7.86838 23.5861 7.86838H23.3613V6.96983H27.1027C27.269 6.96983 27.4186 7.04029 27.5247 7.16696C27.6308 7.29442 27.6727 7.45513 27.6426 7.61821L25.5811 18.8361ZM24.552 23.9685H1.02837V6.16075H8.34575L10.3526 8.89675H23.5861C24.1189 8.89675 24.552 9.33058 24.552 9.86258V23.9685ZM4.97087 3.29017H20.4551V7.86838H10.8735L8.86667 5.13158H4.97087V3.29017ZM6.35787 1.02917H22.3321V7.86837H21.485V2.261H6.35787V1.02917ZM28.3155 6.50829C28.0147 6.14729 27.573 5.94067 27.1027 5.94067H23.3613V0H5.32792V2.261H3.94171V5.13158H0V24.9977H25.5811V24.5298L28.6552 7.80425C28.7399 7.34192 28.6164 6.86929 28.3155 6.50829V6.50829ZM7.999 13.5225H6.96983V16.036H4.45629V17.0652H6.96983V19.5787H7.999V17.0652H10.5133V16.036H7.999V13.5225Z" fill="var(--fill-0, black)"/>
</svg>
