<svg preserveAspectRatio="none" width="100%" height="100%" overflow="visible" style="display: block;" viewBox="0 0 26.961 29.0708" fill="none" xmlns="http://www.w3.org/2000/svg">
<path id="vector" fill-rule="evenodd" clip-rule="evenodd" d="M25.9318 19.2953H21.7835C20.9261 19.2953 20.2295 18.5986 20.2295 17.7412C20.2295 16.8847 20.9261 16.1872 21.7835 16.1872H25.9318V19.2953ZM24.8757 25.5898C24.8757 25.973 24.563 26.2857 24.1799 26.2857H13.467V23.119C13.467 21.7257 10.5442 21.3544 8.81758 21.3544C7.09096 21.3544 4.16812 21.7257 4.16812 23.119V26.2857H1.72504C1.34108 26.2857 1.02917 25.973 1.02917 25.5898V8.31725C1.31654 8.47717 1.64271 8.57692 1.99421 8.57692H24.1799C24.563 8.57692 24.8757 8.88883 24.8757 9.27279V15.158H21.7835C20.3585 15.158 19.2003 16.317 19.2003 17.7412C19.2003 19.1655 20.3585 20.3245 21.7835 20.3245H24.8757V25.5898ZM5.22025 23.119C5.44746 22.8712 6.64683 22.3836 8.81758 22.3836C10.9883 22.3836 12.1877 22.8712 12.4149 23.119C12.1885 23.366 10.9891 23.8537 8.81758 23.8537C6.64604 23.8537 5.44746 23.366 5.22025 23.119V23.119ZM8.81758 24.8829C9.89267 24.8829 11.4317 24.738 12.4403 24.2931L12.4418 25.304C12.0832 25.5914 10.8355 26.0221 8.81758 26.0221C6.80596 26.0221 5.56067 25.5946 5.19729 25.308V24.2939C6.20587 24.738 7.7425 24.8829 8.81758 24.8829V24.8829ZM8.81758 28.0416C6.51542 28.0416 5.30654 27.4938 5.19729 27.307V26.2081C6.08079 26.619 7.47887 26.8138 8.81758 26.8138C10.1587 26.8138 11.5607 26.6182 12.4434 26.2058L12.4458 27.265C12.3286 27.4938 11.1197 28.0416 8.81758 28.0416V28.0416ZM17.5204 1.40837L20.3173 6.18687H9.3575L17.5204 1.40837ZM25.9041 15.158V9.27279C25.9041 8.322 25.1307 7.54854 24.1799 7.54854H1.99421C1.46221 7.54854 1.02917 7.1155 1.02917 6.58271C1.02917 6.05071 1.46221 5.61767 1.99421 5.61767H8.29271L7.40288 6.13858L7.43138 6.18688H2.67504V6.97854H7.8945L7.923 7.02683L8.00533 6.97854H23.0803V6.18688H21.5104L17.8885 0L10.0502 4.5885H1.99421C0.894583 4.5885 0 5.48308 0 6.58271V25.5898C0 26.5406 0.77425 27.3141 1.72504 27.3141H4.16892C4.18 28.7003 7.09412 29.0708 8.81758 29.0708C10.541 29.0708 13.4552 28.7003 13.4663 27.3141H24.1799C25.1307 27.3141 25.9041 26.5406 25.9041 25.5898V20.3245H26.961V15.158H25.9041Z" fill="var(--fill-0, black)"/>
</svg>
