<svg preserveAspectRatio="none" width="100%" height="100%" overflow="visible" style="display: block;" viewBox="0 0 24.012 26.5818" fill="none" xmlns="http://www.w3.org/2000/svg">
<path id="vector" fill-rule="evenodd" clip-rule="evenodd" d="M6.78537 2.73521C7.08304 2.73521 7.32529 2.49375 7.32529 2.19529C7.32529 1.89683 7.08304 1.65538 6.78537 1.65538C6.48771 1.65538 6.24546 1.89683 6.24546 2.19529C6.24546 2.49375 6.48771 2.73521 6.78537 2.73521V2.73521ZM8.4645 1.07983C8.76296 1.07983 9.00442 0.838375 9.00442 0.540708C9.00442 0.24225 8.76296 0 8.4645 0C8.16683 0 7.92458 0.24225 7.92458 0.540708C7.92458 0.838375 8.16683 1.07983 8.4645 1.07983V1.07983ZM13.4306 1.07983C13.7283 1.07983 13.9697 0.838375 13.9697 0.540708C13.9697 0.24225 13.7283 0 13.4306 0C13.1322 0 12.8899 0.24225 12.8899 0.540708C12.8899 0.838375 13.1322 1.07983 13.4306 1.07983V1.07983ZM16.169 2.73521C16.4667 2.73521 16.7089 2.49375 16.7089 2.19529C16.7089 1.89683 16.4667 1.65538 16.169 1.65538C15.8713 1.65538 15.6291 1.89683 15.6291 2.19529C15.6291 2.49375 15.8713 2.73521 16.169 2.73521V2.73521ZM11.7507 2.73521C12.0492 2.73521 12.2914 2.49375 12.2914 2.19529C12.2914 1.89683 12.0492 1.65538 11.7507 1.65538C11.453 1.65538 11.2116 1.89683 11.2116 2.19529C11.2116 2.49375 11.453 2.73521 11.7507 2.73521V2.73521ZM22.9829 25.5526H1.02917V24.2369C1.02917 23.5861 1.55879 23.0565 2.20954 23.0565H21.8033C22.454 23.0565 22.9829 23.5861 22.9829 24.2369V25.5526ZM2.82704 22.0281H21.1842V20.8422H2.82704V22.0281ZM2.82704 10.9582H6.69433V16.8261C6.69433 17.932 7.59367 18.8314 8.69883 18.8314C9.804 18.8314 10.7041 17.932 10.7041 16.8261V10.9582H13.3158V16.8261C13.3158 17.932 14.2144 18.8314 15.3203 18.8314C16.4255 18.8314 17.3248 17.932 17.3248 16.8261V10.9582H21.1842V20.0505H2.82704V10.9582ZM7.7235 10.9582H9.67417V16.8261C9.67417 17.3644 9.23717 17.8022 8.69883 17.8022C8.16129 17.8022 7.7235 17.3644 7.7235 16.8261V10.9582ZM7.7235 9.92987H9.67417V7.049H7.7235V9.92987ZM7.7235 6.21775H9.67417V4.93446H7.7235V6.21775ZM14.3442 10.9582H16.2957V16.8261C16.2957 17.3644 15.8579 17.8022 15.3203 17.8022C14.782 17.8022 14.3442 17.3644 14.3442 16.8261V10.9582ZM14.3442 9.92987H16.2949V7.049H14.3442V9.92987ZM14.3442 6.21775H16.2949V4.93446H14.3442V6.21775ZM22.2142 22.0693V8.84767H21.1842V9.92908H17.3248V3.90529H13.3158V9.92908H10.7041V3.90529H6.69433V9.92908H2.82704V8.84767H1.79867V22.0693C0.776625 22.2632 0 23.1594 0 24.2369V26.5818H24.012V24.2369C24.012 23.1594 23.2354 22.2632 22.2142 22.0693V22.0693Z" fill="var(--fill-0, black)"/>
</svg>
