<svg preserveAspectRatio="none" width="100%" height="100%" overflow="visible" style="display: block;" viewBox="0 0 26.262 27.4059" fill="none" xmlns="http://www.w3.org/2000/svg">
<path id="vector" fill-rule="evenodd" clip-rule="evenodd" d="M4.95979 17.4507H7.23425V14.8833H4.95979V17.4507ZM4.16813 18.2424H8.02592V14.0917H4.16813V18.2424ZM4.95979 23.2394H7.23425V20.672H4.95979V23.2394ZM4.16813 24.031H8.02592V19.8803H4.16813V24.031ZM8.90704 10.6455H9.69871V8.14546H12.1996V7.35379H9.69871V4.85292H8.90704V7.35379H6.40617V8.14546H8.90704V10.6455ZM18.6058 26.3767H25.232V11.305H18.6058V26.3767ZM1.02917 26.3767H17.5774V3.28146H1.02917V26.3767ZM18.6065 10.2758V2.25229H0V27.4059H26.262V10.2758H18.6065ZM11.3715 17.4507H13.646V14.8833H11.3715V17.4507ZM10.5798 18.2424H14.4376V14.0917H10.5798V18.2424ZM11.3715 23.2394H13.646V20.672H11.3715V23.2394ZM10.5798 24.031H14.4376V19.8803H10.5798V24.031ZM2.83417 1.02917H15.7724V0H2.83417V1.02917Z" fill="var(--fill-0, black)"/>
</svg>
