<svg preserveAspectRatio="none" width="100%" height="100%" overflow="visible" style="display: block;" viewBox="0 0 43.7524 39.5335" fill="none" xmlns="http://www.w3.org/2000/svg">
<path id="vector" fill-rule="evenodd" clip-rule="evenodd" d="M42.0682 14.1811H1.68421V5.91832H6.83284V7.47958C6.83284 9.10989 8.15832 10.4337 9.78695 10.4337C11.4156 10.4337 12.7411 9.10989 12.7411 7.47958V5.91832H30.8497V7.47958C30.8497 9.10989 32.1752 10.4337 33.8038 10.4337C35.4324 10.4337 36.7579 9.10989 36.7579 7.47958V5.91832H42.0682V14.1811ZM1.68421 37.8493H42.0682V15.8653H1.68421V37.8493ZM8.51705 2.95411C8.51705 2.25347 9.08632 1.68421 9.78695 1.68421C10.4876 1.68421 11.0568 2.25347 11.0568 2.95411V7.47958C11.0568 8.18021 10.4876 8.74947 9.78695 8.74947C9.08632 8.74947 8.51705 8.18021 8.51705 7.47958V2.95411ZM32.5339 2.95411C32.5339 2.25347 33.1032 1.68421 33.8038 1.68421C34.5044 1.68421 35.0737 2.25347 35.0737 2.95411V7.47958C35.0737 8.18021 34.5044 8.74947 33.8038 8.74947C33.1032 8.74947 32.5339 8.18021 32.5339 7.47958V2.95411ZM36.7579 4.23411V2.95411C36.7579 1.32547 35.4324 0 33.8038 0C32.1752 0 30.8497 1.32547 30.8497 2.95411V4.23411H12.7411V2.95411C12.7411 1.32547 11.4156 0 9.78695 0C8.15832 0 6.83284 1.32547 6.83284 2.95411V4.23411H0V39.5335H43.7524V4.23411H36.7579ZM27.1124 29.6253C28.2223 29.6253 29.1234 28.7259 29.1234 27.6143C29.1234 26.5044 28.2223 25.6034 27.1124 25.6034C26.0008 25.6034 25.1015 26.5044 25.1015 27.6143C25.1015 28.7259 26.0008 29.6253 27.1124 29.6253V29.6253Z" fill="var(--fill-0, black)"/>
</svg>
