<svg preserveAspectRatio="none" width="100%" height="100%" overflow="visible" style="display: block;" viewBox="0 0 22.448 27.104" fill="none" xmlns="http://www.w3.org/2000/svg">
<path id="vector" fill-rule="evenodd" clip-rule="evenodd" d="M17.8 23.25C17.294 23.43 16.736 23.165 16.556 22.659C16.468 22.414 16.482 22.15 16.593 21.915C16.705 21.68 16.902 21.502 17.147 21.415C17.254 21.377 17.364 21.358 17.474 21.358C17.616 21.358 17.758 21.39 17.891 21.453C18.126 21.564 18.303 21.761 18.391 22.006C18.571 22.512 18.306 23.07 17.8 23.25V23.25ZM18.231 20.738C17.804 20.535 17.325 20.511 16.881 20.669C15.964 20.996 15.484 22.007 15.81 22.925C16.067 23.647 16.749 24.098 17.475 24.098C17.671 24.098 17.87 24.065 18.066 23.996C18.983 23.669 19.463 22.658 19.136 21.741C18.978 21.296 18.656 20.94 18.231 20.738V20.738ZM11.504 5.056C11.363 5.275 11.147 5.427 10.893 5.483C10.639 5.539 10.378 5.492 10.159 5.352C9.94 5.212 9.788 4.995 9.732 4.741C9.676 4.487 9.722 4.227 9.863 4.007C10.048 3.717 10.363 3.558 10.685 3.558C10.864 3.558 11.046 3.607 11.208 3.711C11.66 4 11.793 4.604 11.504 5.056V5.056ZM11.634 3.044C10.813 2.52 9.719 2.761 9.196 3.581C8.942 3.979 8.858 4.451 8.959 4.912C9.061 5.372 9.335 5.766 9.733 6.019C10.02 6.203 10.347 6.298 10.68 6.298C10.807 6.298 10.936 6.284 11.063 6.256C11.524 6.154 11.917 5.879 12.171 5.482C12.695 4.662 12.454 3.568 11.634 3.044V3.044ZM18.294 5.056C18.154 5.275 17.937 5.427 17.683 5.483C17.428 5.539 17.168 5.492 16.949 5.352C16.73 5.212 16.578 4.995 16.522 4.741C16.466 4.487 16.512 4.227 16.653 4.007C16.838 3.717 17.153 3.558 17.475 3.558C17.654 3.558 17.836 3.607 17.997 3.711C18.45 4 18.583 4.604 18.294 5.056V5.056ZM18.424 3.044C18.027 2.79 17.554 2.707 17.093 2.808C16.633 2.909 16.239 3.184 15.986 3.581C15.732 3.979 15.648 4.451 15.749 4.912C15.85 5.372 16.125 5.766 16.523 6.019C16.81 6.203 17.137 6.298 17.47 6.298C17.597 6.298 17.726 6.284 17.853 6.256C18.314 6.154 18.707 5.88 18.961 5.482C19.215 5.085 19.299 4.612 19.197 4.152C19.096 3.691 18.821 3.298 18.424 3.044V3.044ZM21.448 24.583C21.448 25.421 20.766 26.104 19.927 26.104H13.279V8.73H6.708V2.521C6.708 1.682 7.391 1 8.23 1H19.927C20.766 1 21.448 1.682 21.448 2.521V24.583ZM1 14.055H12.279V9.73H1V14.055ZM1 26.104H12.279V15.055H1V26.104ZM19.927 0H8.23C6.839 0 5.708 1.13 5.708 2.521V8.73H0V27.104H19.927C21.317 27.104 22.448 25.973 22.448 24.583V2.521C22.448 1.13 21.317 0 19.927 0V0ZM18.419 13.665C18.29 14.186 17.762 14.505 17.24 14.377C16.719 14.249 16.399 13.72 16.528 13.199C16.59 12.947 16.747 12.733 16.969 12.599C17.123 12.505 17.296 12.458 17.471 12.458C17.55 12.458 17.628 12.467 17.706 12.486C17.959 12.548 18.172 12.706 18.307 12.928C18.441 13.151 18.481 13.413 18.419 13.665V13.665ZM17.896 11.718C17.438 11.605 16.963 11.677 16.56 11.921C16.156 12.166 15.872 12.552 15.759 13.01C15.526 13.955 16.106 14.914 17.051 15.146C17.192 15.181 17.334 15.198 17.473 15.198C18.266 15.198 18.989 14.658 19.188 13.854V13.854C19.3 13.396 19.228 12.922 18.984 12.519C18.74 12.115 18.354 11.831 17.896 11.718V11.718Z" fill="var(--fill-0, black)"/>
</svg>
